<svg xmlns="http://www.w3.org/2000/svg" xmlns:xlink="http://www.w3.org/1999/xlink" viewBox="0 0 1113.57963 862.315"><defs><style>.cls-1{fill:none;}.cls-2{fill:#2b3c73;}.cls-3{fill:#101666;}.cls-4{fill:#fff;}.cls-5{fill:#0c022f;}.cls-6{fill:#82fbdd;}.cls-7{fill:#ffa0a8;}.cls-8{fill:#f3fcff;}.cls-9{fill:#36cce2;}.cls-10{fill:#59fad2;}.cls-11{fill:#161e3a;}.cls-12{fill:#e3f2ec;}.cls-13{fill:#bf787e;}.cls-14{fill:#ea8190;}.cls-15{fill:#734a7d;}.cls-16{isolation:isolate;}.cls-17{fill:#a3c2f4;}.cls-18{fill:#c8e7ff;}.cls-19{fill:#4864bf;}.cls-20{fill:#a6cef5;}.cls-21{fill:#eff5fc;}.cls-22{fill:#abccf4;}.cls-23{fill:#ddebfb;}.cls-24{fill:#ff6796;}.cls-25{fill:#442761;}.cls-26{opacity:0.2;}.cls-27{fill:#43397b;}.cls-28{fill:#3f3170;}.cls-29{fill:#8467ec;}.cls-30{fill:#7d61df;}.cls-31{opacity:0.4;}.cls-32{fill:#5b3482;}.cls-33{fill:#834bbc;}.cls-34{opacity:0.77;}.cls-35{fill:#e6f6ff;}.cls-36{opacity:0.6;}.cls-37{opacity:0.8;}.cls-38{opacity:0.5;}.cls-39{opacity:0.3;}.cls-40{clip-path:url(#clip-path);}.cls-41{fill:#202d56;}.cls-42{fill:#2ff9c7;}.cls-43{fill:#9cffd7;}.cls-44{fill:#a7ccff;}.cls-45{fill:#5d688a;}.cls-46{fill:#ffd33e;}.cls-47{fill:#ffa83c;}.cls-48{fill:#fdfeff;}.cls-49{fill:#e8f9ff;}.cls-50{opacity:0.48;}.cls-51,.cls-52{opacity:0.53;}.cls-51{fill:url(#linear-gradient);}.cls-52{fill:url(#linear-gradient-2);}.cls-53{fill:#acfde9;}</style><clipPath id="clip-path"><polygon class="cls-1" points="156.52 515.218 623.588 243.788 873.758 388.224 406.69 659.654 156.52 515.218"/></clipPath><linearGradient id="linear-gradient" x1="580.06626" y1="324.2002" x2="579.64154" y2="186.5917" gradientUnits="userSpaceOnUse"><stop offset="0.00256" stop-color="#fff"/><stop offset="1" stop-color="#fff" stop-opacity="0"/></linearGradient><linearGradient id="linear-gradient-2" x1="582.82295" y1="324.19169" x2="582.39824" y2="186.58319" xlink:href="#linear-gradient"/></defs><g id="Layer_2" data-name="Layer 2"><g id="man"><path class="cls-2" d="M22.40651,536.48985c-3.28579.74245-13.97134,8.40113-17.79291,12.73044-.76207.86337-1.02085,2.8513-1.00964,5.21129a30.87563,30.87563,0,0,0,7.00746,19.11356c4.04607,5.03176,10.08479,13.55215,17.27866,26.87137l3.89916-3.53029a19.723,19.723,0,0,1,20.24514-3.57349l.25267.11977c-.29191-1.05411-.62956-2.08986-.99027-3.09071,0,0-17.88121-24.93785-16.57342-33.30623,1.34143-8.58371,3.29152-22.50994,3.29152-22.50994Z"/><path class="cls-3" d="M27.75426,600.53947l.13582-.123c-4.60823-7.9781-8.59913-19.129-16.55277-28.72819-6.92821-8.36163-7.64492-15.011-6.49016-19.11229,1.09578-3.8919,5.76363-8.74349,5.76363-8.74349-3.22577.6-11.75584,10.88661-10.44563,15.53765,3.44761,12.2385,10.13207,13.98561,15.52708,22.87308,5.56257,9.16346,8.65176,19.58539,12.83849,23.78423,2.02017,2.026,8.02411,6.57437,13.51481,5.83893,4.7317-.63363,8.17013-2.91768,9.63082-5.48777,2.20326-3.87687,1.8228-8.51962.63542-12.85366,1.03295,3.82081,1.32741,7.866-.61313,11.28072-1.29759,2.283-4.35237,4.312-8.55593,4.8749-4.878.65326-10.21246-3.3872-12.00711-5.18707a32.12872,32.12872,0,0,1-2.32507-2.52486C28.45529,601.529,28.10082,601.06506,27.75426,600.53947Z"/><path class="cls-4" d="M31.78924,596.88622l-3.89916,3.53029-.13582.123c.34656.52559.701.98951,1.05627,1.42922a32.12872,32.12872,0,0,0,2.32507,2.52486c1.79465,1.79987,7.12914,5.84033,12.00711,5.18707,4.20356-.56292,7.25834-2.59188,8.55593-4.8749,1.94054-3.41473,1.64608-7.45991.61313-11.28072-.00829-.03045-.0144-.06128-.02294-.09161l-.00178-.00089-.25267-.11977A19.723,19.723,0,0,0,31.78924,596.88622Z"/><path class="cls-4" d="M20.62868,559.03254h0a5.99408,5.99408,0,0,0,8.61455-1.26039L40.874,541.22537,24.95647,531.02552l-6.98274,9.971A13.272,13.272,0,0,0,20.62868,559.03254Z"/><path class="cls-2" d="M37.64474,449.09a29.06264,29.06264,0,0,0-10.74939-4.02632c-3.33662.39409-10.23438-1.42056-11.76209,1.75769-1.15425,2.40127-.783,2.86455-2.2829,6.15849-4.32753,9.5039-7.36,28.147-9.78791,37.30872l4.6.21036A17.26455,17.26455,0,0,1,22.44486,500.7175l.083.22909c.46889-.831.89777-1.67882,1.291-2.51925,0,0,4.12787-17.14678,7.98461-22.63341C40.72245,463.10553,43.961,459.3506,43.961,459.3506Z"/><path class="cls-5" d="M22.1462,444.97574a9.11807,9.11807,0,0,0-6.44237,4.95645A9.119,9.119,0,0,1,22.1462,444.97574Z"/><path class="cls-3" d="M2.90229,490.2813l.16016.00726c2.05725-7.7629,6.06981-17.72117,9.87978-26.3626,2.2448-5.09177,1.32461-11.09724,2.98738-14.55631,1.52771-3.17824,7.62912-3.9119,10.96574-4.306.08741-.01032.17226-.03326.26031-.04116h0l-9.26169-.83635s-4.709.00471-6.74243,3.69708c-2.84761,5.17051-2.3303,14.86936-4.45954,23.678C4.49664,480.6431-.0117,488.9851,0,494.15205c.00561,2.49313.93064,8.992,4.79579,11.90785,3.33063,2.51288,6.87558,3.21112,9.3682,2.51849,3.76-1.04506,6.387-4.15005,8.32213-7.5593-1.71462,2.99707-4.02645,5.67967-7.3381,6.60011-2.21422.61529-5.36354-.00509-8.32251-2.23753-3.43359-2.59061-4.256-8.36431-4.261-10.57917a27.85523,27.85523,0,0,1,.11264-2.98891C2.72747,491.32368,2.79348,490.81912,2.90229,490.2813Z"/><path class="cls-4" d="M7.6624,490.49892l-4.59995-.21036-.16016-.00726c-.10881.53782-.17482,1.04238-.22514,1.53229a27.85523,27.85523,0,0,0-.11264,2.98891c.005,2.21486.82743,7.98856,4.261,10.57917,2.959,2.23244,6.10829,2.85282,8.32251,2.23753,3.31165-.92044,5.62348-3.603,7.3381-6.60011.01376-.024.02893-.04676.04231-.07071l-.00064-.00179-.083-.22909A17.26455,17.26455,0,0,0,7.6624,490.49892Z"/><path class="cls-4" d="M49.91215,461.59617,44.155,463.91551a46.43786,46.43786,0,0,0-6.49079,2.55c-3.47168,1.61321-8.50535-.77876-10.23845-4.19209a10.38564,10.38564,0,0,1,5.2927-14.35549l13.494-3.34083a2.02239,2.02239,0,0,1,2.46829,1.56173l2.65648,13.11166A2.02243,2.02243,0,0,1,49.91215,461.59617Z"/><path class="cls-2" d="M137.57679,409.01545c-14.09009,17.17049-85.70244,31.1287-103.19732,34.31791a5.03616,5.03616,0,0,0-4.12354,4.62007l-.10729,1.59856a24.59333,24.59333,0,0,0,2.9475,13.42116l3.52813,6.46785s107.90685-19.163,128.77-37.93981c16.08453-14.4759,17.15392-95.96995,17.15392-95.96995V292.41442L139.19956,310.4958s2.63112,39.41859,1.95263,56.10158C140.82767,374.57778,142.64346,402.84142,137.57679,409.01545Z"/><path class="cls-6" d="M34.92468,464.97115l-.19036-1.2604c1.03843-.15621,104.0849-15.9543,124.51925-40.25278C179.118,399.8376,174.08484,303.00887,174.032,302.03389l1.27173-.06957c.21827,4.00288,5.11152,98.3107-15.07463,122.31357C139.48548,448.94345,39.18455,464.328,34.92468,464.97115Z"/><path class="cls-2" d="M123.53652,327.50739s-15.84307,94.61234-27.06746,124.39324C86.184,479.18891,39.86826,553.89758,39.86826,553.89758H38.45319a21.05445,21.05445,0,0,1-20.95472-19.00845h0s35.05946-63.5806,44.04441-86.38832c12.05412-30.599,11.59045-90.7156,11.59045-90.7156h0a85.40561,85.40561,0,0,1-8.11342-36.332v-4.46692Z"/><path class="cls-6" d="M83.94223,363.25986a86.59638,86.59638,0,0,1-8.17369-36.60335v-4.46692h1.27415v4.46692a85.30621,85.30621,0,0,0,8.053,36.06082Z"/><path class="cls-6" d="M26.77086,547.82726l-1.06761-.69556C90.02618,448.43022,83.9528,363.88318,83.88374,363.0402l1.27046-.10321C85.22326,363.78367,91.329,448.76558,26.77086,547.82726Z"/><path class="cls-2" d="M148.472,339.47207l-12.25824,6.12918a39.07713,39.07713,0,0,0-17.697,17.92568l-5.31563,10.98115L108.83242,311.423l50.67471-20.44786Z"/><path class="cls-7" d="M240.9088,238.9153l-6.11632-2.886a92.31985,92.31985,0,0,1-50.5013-68.78679c-4.46068-29.11643-9.46249-52.87581-14.56573-69.26817a5.87869,5.87869,0,0,1,3.68294-7.30166h.00013a16.43533,16.43533,0,0,1,21.31428,11.269c4.34091,16.33718,8.44088,37.03885,12.23811,61.828a69.3745,69.3745,0,0,0,37.95765,51.68154l12.74395,8.20211Z"/><path class="cls-8" d="M207.2002,142.30929c1.62518,5.18695-3.96287,11.27561-12.0289,13.80289-8.06615,2.52716-15.92232.371-17.5475-4.81591s3.59629-11.44049,11.66232-13.96765S205.575,137.12234,207.2002,142.30929Z"/><path class="cls-8" d="M197.41878,105.07217c-1.47662-9.204-12.76956-16.97311-23.46773-18.35824-3.76423-.48737-12.11222-1.55969-13.53787.15927-3.07466,3.7074,5.35717,14.11493,6.15734,19.077,1.62213,10.06,9.09669,40.20959,10.87592,42.10425a16.167,16.167,0,0,0,17.30809,4.14877l1.71883-.62229a11.5916,11.5916,0,0,0,7.28127-13.81768c-1.05283-4.03677-2.149-8.48637-2.77892-11.75814C199.64052,119.07091,199.37511,117.26683,197.41878,105.07217Z"/><path class="cls-9" d="M53.55215,149.08523c-2.32583-15.69832-2.94316-16.9907-2.94316-16.9907S65.71738,118.117,71.23931,114.06374c39.243-28.805,89.54758-28.51656,89.54758-28.51656,8.35666-1.70851,12.892,2.15409,16.81486,12.88653l7.31211,25.99119a60.26775,60.26775,0,0,1,2.12809,20.18449l-3.23545,50.3684,2.41719,35.56887a239.01291,239.01291,0,0,1,2.5701,26.83085l1.28957,32.97457a12.82926,12.82926,0,0,1-7.82177,12.31711l-32.4528,13.72619a3.26788,3.26788,0,0,1-4.5393-3.11034l.54967-17.86056-9.543,26.48683L95.15579,339.51157a12.82929,12.82929,0,0,1-12.9998-1.78815L65.4135,324.36316a17.88138,17.88138,0,0,1-6.57629-16.30189l8.578-65.409Z"/><path class="cls-10" d="M188.79391,257.37751a239.00807,239.00807,0,0,0-2.57035-26.83085l-2.41706-35.56887,1.95544-30.43989s-5.65418,6.32311-8.43451,7.70353c-12.32131,6.11759-51.972,22.28875-51.972,22.28875a32.58575,32.58575,0,0,1-38.78776-7.47176l-32.832-36.73586,13.67969,92.32957-8.57811,65.409a17.88161,17.88161,0,0,0,6.57629,16.302l16.74262,13.36026c1.83873,1.46732,6.25392,2.68184,6.25392,2.68184s4.57918.02268,6.74575-.89369l41.12035-17.60038,9.54315-26.48671-.54967,17.86056a3.26778,3.26778,0,0,0,4.53917,3.11021l32.45254-13.72594a12.82948,12.82948,0,0,0,7.822-12.31723Z"/><path class="cls-11" d="M61.54288,448.50081c-1.80471,4.581-4.67092,10.82062-8.084,17.84566q-2.8915.57222-5.2197,1.01855c3.81048-7.77946,7.015-14.70206,8.97628-19.68094a95.429,95.429,0,0,0,3.13658-9.5601c1.542-.323,3.15162-.66753,4.81375-1.03117A99.99732,99.99732,0,0,1,61.54288,448.50081Z"/><path class="cls-11" d="M96.46906,451.90063a240.85321,240.85321,0,0,0,7.30676-25.1082c2.82747-.9379,5.596-1.91263,8.26249-2.92456-2.75166,11.40507-5.50192,21.35238-8.01964,28.03276-.40225,1.0671-.86541,2.21435-1.37277,3.41906-2.83155.72245-5.65622,1.424-8.455,2.10312C95.07208,455.42354,95.83886,453.57207,96.46906,451.90063Z"/><path class="cls-12" d="M102.00347,93.84472l13.90011,20.30694L136.389,152.34643l-15.41648-10.60019a13.5117,13.5117,0,0,0-14.57313-.47284h0L94.12793,152.335a3.13392,3.13392,0,0,1-5.05393-1.28651l-8.04-22.81893A22.80308,22.80308,0,0,1,92.11872,98.087Z"/><path class="cls-12" d="M137.30757,78.52992a33.49808,33.49808,0,0,1,31.85152,19.0287l7.96282,12.49218a1.28617,1.28617,0,0,1-1.3543,1.94881l-5.30328-1.13769a10.79861,10.79861,0,0,0-11.45144,7.4027L150.598,144.20969,133.44408,99.702Z"/><path class="cls-7" d="M97.50991,110.77477h0A102.52327,102.52327,0,0,1,135.79515,151.385h0c3.01324,5.78427,10.77309,27.98116,13.17728,21.91836l1.06583-23.66344a7.94942,7.94942,0,0,0,.55974-2.93093V85.17513L107.67625,79.6118l-5.91309,14.83572L96.824,98.18729A7.60388,7.60388,0,0,0,97.50991,110.77477Z"/><path class="cls-13" d="M150.598,85.17513v25.2295l-4.54567,2.72172a6.59863,6.59863,0,0,1-6.47435.17226l-25.44216-11.91587a9.78752,9.78752,0,0,1-3.70612-3.43525,16.25778,16.25778,0,0,0-1.15311-1.6908l-5.54346-6.75135,3.94312-9.8938Z"/><path class="cls-7" d="M110.20748,42.26625l13.329,5.56346,14.00536,2.28469,14.07429-8.11967,1.93977-1.11921,10.02657-2.42038-1.68125,33.25131-1.2581,20.19137c.10385,2.39451,1.02022,4.68391-1.03626,5.91538l-12.83009,7.68263a6.59875,6.59875,0,0,1-6.47409.17226L114.86056,93.75222a9.78835,9.78835,0,0,1-3.70613-3.4355,16.324,16.324,0,0,0-1.1531-1.6908L96.29858,71.93821,93.8099,55.68843c-4.0439-9.15173-.04421-16.838-.04421-26.84334L84.94,26.861Z"/><path class="cls-14" d="M138.08747,94.72669v2.111l-12.89671-5.2871-1.27734-2.71751a38.15233,38.15233,0,0,0-9.971-12.96833h-.00013l-.70193-6.35675-3.2352-1.17961,2.36317,23.51271a9.7671,9.7671,0,0,0,2.49237,1.9111l25.442,11.91587a6.59851,6.59851,0,0,0,6.474-.17226L159.6069,97.8132c2.05648-1.23147,1.14011-3.52087,1.03614-5.91551l.82743-13.27833L146.14929,83.6171A11.6857,11.6857,0,0,0,138.08747,94.72669Z"/><path class="cls-2" d="M136.99858,53.15376h0a3.0411,3.0411,0,0,0-2.504-3.53641l-10.9581-1.78764-15.51421-.43983L84.94,26.861h0a8.0373,8.0373,0,0,1,1.86052-5.14235l10.89235-13.082A27.8739,27.8739,0,0,1,120.33942.11027l12.01348-.079a16.52976,16.52976,0,0,1,8.78464,2.458c5.84339,3.60165,30.6881,17.93166,31.67569,18.59.72856.48571-1.885,2.77829-4.53993,4.852a2.726,2.726,0,0,0,1.13043,4.81961l4.27516.87637L170.1012,35.4015a18.205,18.205,0,0,1-14.64562,5.624l-1.89964-.15-3.965,4.4013a26.5573,26.5573,0,0,1-10.78176,7.22878Z"/><path class="cls-15" d="M123.53652,47.82984c-7.352.12461-10.9665,12.5067-10.19972,19.81983l-.29216,5.62577-2.742-1.37813-.704-8.44342A12.20169,12.20169,0,0,0,98.61677,54.9c-2.0375,4.43889-.73684,14.74857,1.67831,18.99367l2.72618,1.52172.71187,5.57684H99.867c-4.51267-8.6701-9.81671-19.77536-11.255-29.44287L84.94,26.861l28.76146,19.6017Z"/><path class="cls-7" d="M172.91861,287.2606,98.37506,264.76518a52.89381,52.89381,0,0,1-36.01928-37.70244c-2.449-9.71248-5.05125-20.61553-7.45022-31.82-3.939-18.39775-7.33033-37.60827-8.59671-53.69547a11.44637,11.44637,0,0,1,11.43743-12.30207h.00013a11.46334,11.46334,0,0,1,11.42788,10.5747c2.0222,25.61009,10.24278,61.09932,15.41036,81.59483a30.15012,30.15012,0,0,0,20.41626,21.39379l74.54367,22.49542a11.46736,11.46736,0,0,1,7.66531,14.29128h0A11.46734,11.46734,0,0,1,172.91861,287.2606Z"/><path class="cls-8" d="M75.03552,141.6015A14.4199,14.4199,0,0,0,56.01,129.09072,16.794,16.794,0,0,0,44.732,146.5461c1.55676,19.50129,3.54648,35.79541,7.58172,52.91111.90911,3.856,7.56451,5.24823,11.25828,3.81608l14.49719-5.84912a5.09168,5.09168,0,0,0,3.11925-5.86824C77.62332,175.76051,77.08767,167.59166,75.03552,141.6015Z"/><path class="cls-6" d="M77.01873,120.86058C71.58358,123.724,65.309,126.149,61.41559,131.09878c-4.11552,5.23218-4.71233,11.24466-3.89267,17.60752,1.47955,11.48636,3.086,22.95768,4.62887,34.43576.16309,1.21325,2.00488.69658,1.84294-.50813q-2.04349-15.2023-4.087-30.40485c-.91025-6.77149-1.78062-13.0035,2.4502-19.11828,3.62293-5.23626,10.1522-7.7164,15.62532-10.59981,1.08863-.57362.12385-2.22378-.96454-1.65041Z"/><path class="cls-8" d="M80.6293,189.46313c1.88409,6.11109-3.36453,12.82563-11.26262,15.26066-7.898,2.435-15.8279-.54508-17.712-6.65618s2.99107-13.03917,10.88916-15.47407C70.44181,180.15851,78.74521,183.352,80.6293,189.46313Z"/><path class="cls-7" d="M63.23253,188.75241h0c6.70179-2.96189,13.93681-.018,15.32984,7.17552l1.89747,8.46369L59.39975,215.03309,56.127,200.07351C55.21773,194.90542,58.43292,190.87349,63.23253,188.75241Z"/><path class="cls-4" d="M152.85465,155.35152q-7.2126,3.86412-14.42519,7.7285c-1.62684.87164-.18055,3.34745,1.44693,2.47542q7.21259-3.86432,14.42519-7.7285c1.62684-.87165.18055-3.34745-1.44693-2.47542Z"/><path class="cls-4" d="M153.22568,163.42391l-14.42519,7.72863c-1.62684.87165-.18055,3.34745,1.44693,2.47542l14.42519-7.72863c1.62684-.87164.18055-3.34745-1.44693-2.47542Z"/><g class="cls-16"><path class="cls-17" d="M326.37145,283.54759a3.417,3.417,0,0,1-2.01609,2.81524L229.99555,340.8414a7.48016,7.48016,0,0,1-1.04047.49119c-.05479.021-.11327.03682-.16857.05682a9.28141,9.28141,0,0,1-.94568.28809c-.06536.01605-.13009.03313-.196.04791a10.84372,10.84372,0,0,1-1.09654.18819q-.08446.00995-.1692.01886c-.37486.03911-.75379.06039-1.13336.06294-.06065.00051-.12092-.00038-.18132-.00076-.38479-.00319-.7692-.02319-1.14852-.064-.06778-.00726-.134-.01949-.20157-.028-.2812-.03542-.55642-.08651-.8296-.14258-.2324-.0479-.45844-.10715-.68243-.1701-.21712-.0609-.43462-.12078-.6418-.196-.08931-.03236-.17761-.06536-.26476-.10028a7.378,7.378,0,0,1-.95307-.45232l-56.93654-33.08784c-.16079-.09352-.28146-.20042-.42276-.30057a5.32411,5.32411,0,0,1-.47564-.35217,3.83069,3.83069,0,0,1-.53973-.59554c-.02663-.03708-.05059-.07467-.07556-.11213a2.85183,2.85183,0,0,1-.32376-.63313c-.00879-.0251-.01376-.05045-.02179-.07568a2.3661,2.3661,0,0,1-.11671-.699l.00713,2.54932c0,.02.00039.04.001.05989a2.31621,2.31621,0,0,0,.04473.39129,2.46957,2.46957,0,0,0,.07122.24808c.00777.0251.01312.05033.02179.07543.00688.02.00968.04039.0172.06027a2.75767,2.75767,0,0,0,.18131.38721c.03542.063.084.12372.125.18565.025.03771.04854.075.07568.11225.02612.03593.04536.07314.07339.10881a3.92706,3.92706,0,0,0,.42175.45373c.01274.01159.03172.0214.04446.033a5.323,5.323,0,0,0,.4745.35115c.11722.08321.21023.17393.34122.25267.02739.01644.05479.03274.08269.04893l56.93628,33.08783a7.3695,7.3695,0,0,0,.95307.45207c.08779.0353.17583.068.26566.10066.0939.03415.183.07454.27878.10575.11595.03759.24324.0567.362.09009.22527.0632.4499.12206.6832.1701.084.01733.16207.04612.24693.06154.191.03427.38632.05632.58076.08078.0688.00866.13531.021.20412.02841.02892.00319.05657.00905.08549.012.2505.025.503.04166.75621.05033.10181.00357.20323.00051.30491.0014.06128.00051.12168.00127.18258.00089.07034-.00051.14067.00268.21088.001q.33695-.0084.672-.03593c.084-.007.16666-.01937.25012-.028.05683-.00586.11251-.0121.16921-.01886.08116-.00981.163-.0158.24387-.02726q.34153-.04856.67619-.11761c.0604-.01249.11761-.03007.17737-.04358.06536-.01465.12881-.03147.19354-.04739.11378-.028.22947-.05186.34122-.08359.209-.05963.40836-.13276.60841-.20552.0544-.01975.11174-.035.16589-.05581.01771-.007.03721-.01172.055-.01873a7.427,7.427,0,0,0,.98569-.47271l94.3598-54.47856a3.41652,3.41652,0,0,0,2.01609-2.81512Z"/><path class="cls-18" d="M163.44757,302.16793c-2.67584,1.54491-2.68986,4.04659-.04141,5.58563l56.93628,33.08784a10.63236,10.63236,0,0,0,9.65311,0l94.35968-54.47857c2.67585-1.54491,2.68974-4.04658.03147-5.59136l-56.93641-33.08784a10.629,10.629,0,0,0-9.643.00574Z"/><path class="cls-19" d="M272.20352,265.17316a8.19159,8.19159,0,0,0-7.43162.00446L192.05281,307.1621c-2.06209,1.19057-2.07292,3.11849-.032,4.3046l43.87864,25.49936c.13812.08015.29484.141.44353.21049l80.10114-46.24626a4.14644,4.14644,0,0,0-.362-.25776Z"/><path class="cls-20" d="M206.773,281.58731a.58292.58292,0,0,0-.00153,1.10176l11.67086,6.78231a2.15291,2.15291,0,0,0,1.94652.00281l19.32011-11.15445a.58718.58718,0,0,0,.00153-1.10978l-11.65914-6.77557a2.16413,2.16413,0,0,0-1.9562-.0028Z"/></g><g class="cls-16"><path class="cls-21" d="M337.54348,220.17111c-.01963-.01618-.0395-.03173-.06027-.04651a1.11788,1.11788,0,0,0-.11175-.07059,1.19207,1.19207,0,0,0-.11824-.05721,1.28388,1.28388,0,0,0-.12627-.0451c-.02076-.00625-.04293-.01058-.06434-.01593l-.01593-.004c-.018-.0042-.03542-.00968-.05377-.01325-.04663-.00917-.09492-.01631-.14436-.02153-.05033-.00523-.10231-.00816-.15519-.00918-.05441-.00089-.11009.00038-.16742.00408-.02918.00191-.06027.00624-.09047.00943l-.02459.00255c-.02421.00267-.04765.004-.0725.00751q-.10263.01454-.21023.03836-.11907.02617-.24388.06358c-.06256.01873-.12792.04332-.19252.06625l-.04549.0158c-.0214.0079-.04166.01338-.06345.02179q-.20622.07989-.42493.18807-.17545.08676-.358.19226L239.197,275.694a8.3032,8.3032,0,0,0-.94938.65542c-.03172.02485-.065.04129-.0967.06664q-.22821.18311-.45042.38365c-.02459.0223-.04854.04612-.07313.06855l-.05938.05568c-.06447.06014-.12971.11926-.19316.18131q-.13627.13282-.2691.271-.12.12481-.23674.25369l-.00713.0079-.00561.0065c-.06842.07581-.13659.15213-.20323.2296q-.10072.11715-.199.237c-.06218.07619-.12385.15315-.18412.23075-.02612.03364-.05173.06778-.07746.10155l-.02523.033c-.02421.03211-.04919.06371-.07276.09594q-.08543.1143-.16742.23024-.08122.11507-.15952.23139-.07894.11715-.1543.23521l-.02714.044-.01364.022c-.03606.05746-.0725.115-.10766.17277q-.07455.124-.14551.24872-.07377.12959-.14245.25954c-.02931.05556-.057.11111-.085.16679l-.0186.03644c-.0116.02357-.02434.047-.0358.07046q-.07282.14832-.13812.29586-.07512.16894-.14029.33638c-.01465.0372-.02548.07351-.03924.11046-.01249.03377-.02332.06664-.03517.1-.02548.072-.05415.14461-.07645.21584a5.52791,5.52791,0,0,0-.14933.57171l-11.94671,58.97365a2.45621,2.45621,0,0,0,.12869,1.68175,1.16374,1.16374,0,0,0,.2728.329l1.073.88668a1.994,1.994,0,0,1-.40161-2.01061L235.532,282.80667a5.86909,5.86909,0,0,1,.22578-.78857c.01185-.03262.02243-.06524.03491-.098a8.17911,8.17911,0,0,1,.35333-.81329l.01924-.0381c.14283-.28235.30337-.56573.47971-.84629l.01428-.02294c.17927-.28375.3746-.56432.58267-.83839l.022-.02892c.21-.27522.43245-.54394.66549-.80119l.00548-.00637c.22654-.24986.46328-.48775.70588-.71353l.05976-.05619c.2022-.18551.41053-.35472.62-.51858a8.3112,8.3112,0,0,1,.94937-.65568l95.60274-55.19629a5.54445,5.54445,0,0,1,.84616-.40213l.046-.0158a3.25386,3.25386,0,0,1,.71888-.1757l.025-.00255a1.839,1.839,0,0,1,.611.03045l.01618.00395a1.19883,1.19883,0,0,1,.48086.23534Z"/><path class="cls-22" d="M335.87281,221.38436c2.18033-1.25874,3.58648-.50572,3.14473,1.67487L327.0707,282.033a10.88785,10.88785,0,0,1-4.74787,6.23889L226.72,343.46832c-2.17192,1.25389-3.57833.501-3.13492-1.68774l11.94683-58.97378a10.883,10.883,0,0,1,4.73807-6.226Z"/></g><path class="cls-4" d="M292.62666,274.70089l-10.51622,6.07147a9.17491,9.17491,0,0,0-3.99765,5.2532l-2.13867,10.55738c-.37307,1.84153.81215,2.47632,2.64642,1.41724l10.51609-6.07147a9.17456,9.17456,0,0,0,3.99778-5.2532l2.13867-10.5575c.37307-1.84141-.81215-2.47619-2.64642-1.41712Z"/><path class="cls-23" d="M292.08247,274.70089l-10.51609,6.07147a9.17459,9.17459,0,0,0-3.99778,5.2532l-2.13867,10.55738c-.37307,1.84153.81214,2.47632,2.64641,1.41724l10.5161-6.07147a9.17456,9.17456,0,0,0,3.99778-5.2532l2.13866-10.5575c.37308-1.84141-.81214-2.47619-2.64641-1.41712Z"/><path class="cls-7" d="M185.12486,266.1l-17.04,19.52907,30.84329,10.068a15.04161,15.04161,0,0,0,16.61941-5.16618l4.72571-6.18435a6.51307,6.51307,0,0,0-3.57948-10.269Z"/><path class="cls-7" d="M198.92037,260.95444l-18.10953,6.76079,12.2525,3.88055,10.20508-4.92944a3.06093,3.06093,0,0,0-.006-5.5153h0A5.54791,5.54791,0,0,0,198.92037,260.95444Z"/><path class="cls-7" d="M250.43386,221.05562l-6.83838,1.9822a9.54975,9.54975,0,0,0-4.74278,15.207l11.38035,13.95758a15.04152,15.04152,0,0,0,16.774,4.63957l7.31911-2.64731a6.51306,6.51306,0,0,0,2.54117-10.57394L257.60364,223.027A7.10829,7.10829,0,0,0,250.43386,221.05562Z"/><path class="cls-7" d="M236.93472,247.94827l.30325-19.328,7.76086,10.24457-1.22574,11.26669a3.06089,3.06089,0,0,1-5.19854,1.84205h0A5.54722,5.54722,0,0,1,236.93472,247.94827Z"/><path class="cls-24" d="M149.1052,54.982l7.84356,20.65733a1.96043,1.96043,0,0,1-1.299,2.58233h0a9.35778,9.35778,0,0,1-7.58809-1.11973l-1.65092-1.05538-1.66468-18.70392a3.24757,3.24757,0,0,1,1.7159-3.15825l.21967-.11633A1.728,1.728,0,0,1,149.1052,54.982Z"/><path class="cls-15" d="M159.7496,58.49858l-2.90813,1.64353a1.19386,1.19386,0,0,1-1.78126-1.03933V52.11087a1.19378,1.19378,0,0,1,.60637-1.03933l2.90825-1.64353a1.19385,1.19385,0,0,1,1.78127,1.03933v6.99191A1.1939,1.1939,0,0,1,159.7496,58.49858Z"/><polygon class="cls-25" points="164.125 49.272 150.805 55.567 150.603 52.339 163.923 46.044 164.125 49.272"/><path class="cls-15" d="M138.43048,66.78057l-2.90813,1.64353a1.19389,1.19389,0,0,1-1.78127-1.03933V60.39286a1.1939,1.1939,0,0,1,.6065-1.03933L137.25571,57.71a1.19385,1.19385,0,0,1,1.78126,1.03933v6.99191A1.19364,1.19364,0,0,1,138.43048,66.78057Z"/><polygon class="cls-25" points="141.975 58.423 128.655 64.718 128.453 61.49 141.773 55.194 141.975 58.423"/><path class="cls-24" d="M153.55543,92.34823l-2.89245.88133c-.43423.12856-.97192-.03568-.97192-.29688V90.93532c0-.123.12639-.23635.33089-.29688l2.89246-.88146c.43423-.12843.97192.03581.97192.297v1.99723C153.88633,92.17418,153.75994,92.28771,153.55543,92.34823Z"/><path class="cls-25" d="M146.54874,89.9281a9.53293,9.53293,0,0,1-2.76567-.41027l-2.26672-.68613a.6359.6359,0,0,1-.4243-.79291h0a.63575.63575,0,0,1,.79253-.424l2.26735.68626a8.33888,8.33888,0,0,0,4.70991.03784l5.98826-2.407a.9026.9026,0,0,1,1.17439.50125h0a.36787.36787,0,0,1-.20438.47845l-6.54736,2.62857A9.87161,9.87161,0,0,1,146.54874,89.9281Z"/><polygon class="cls-6" points="105.269 57.379 132.398 63.879 132.398 66.482 107.86 60.177 105.269 57.379"/><path class="cls-6" d="M169.47508,46.05762a1.521,1.521,0,0,0-2.35922-1.47457L154.5136,50.86169a4.45865,4.45865,0,0,0-2.12274,2.85372l-4.18292,2.01673a1.46,1.46,0,0,0-2.18632-.6395L133.419,61.37128a4.45011,4.45011,0,0,0-2.23576,3.76385l.20769,8.84275c-.20845,4.97493,3.61159,4.8298,4.87924,4.1982l6.37968-3.17837a10.28612,10.28612,0,0,0,5.92915-9.98108l-.16-6.80384,3.89967-1.85721.15774,6.71924c.08983,3.83189,2.89475,5.585,6.25558,3.91038l8.80746-4.3878a4.46588,4.46588,0,0,0,2.23563-3.77353ZM142.599,72.83445c-1.76368.87866-7.0546,3.51463-7.0546,3.51463a1.41751,1.41751,0,0,1-2.21766-1.3371l-.25445-10.81807a.80117.80117,0,0,1,.40595-.67326l12.59385-6.27444a.26793.26793,0,0,1,.4192.25267l.19864,8.45884A8.1421,8.1421,0,0,1,142.599,72.83445ZM165.9611,61.19507l-7.76979,3.83711c-2.31475,1.15323-3.76385-.25993-3.8259-2.89844l-.19876-8.45885a.78523.78523,0,0,1,.39779-.65963l12.59385-6.27444a.27337.27337,0,0,1,.42773.25789l.26006,11.06984A3.72154,3.72154,0,0,1,165.9611,61.19507Z"/><g class="cls-26"><path class="cls-27" d="M94.538,686.99558a72.21125,72.21125,0,0,0-9.34973-2.29526,31.01086,31.01086,0,0,0-9.01438-4.33645c-16.58552-5.41146-43.389-5.41133-59.86657.00012-16.47989,5.41235-16.39262,14.18617.1929,19.59762a72.20828,72.20828,0,0,0,9.35088,2.29551,31.00587,31.00587,0,0,0,9.01323,4.3362c16.58769,5.41209,43.39127,5.412,59.87117-.00025C111.213,701.18148,111.12564,692.40767,94.538,686.99558Z"/></g></g><g id="woman"><path class="cls-25" d="M1026.618,130.56682a22.09281,22.09281,0,0,0-5.02653.58994c1.29645-12.93418,1.927-25.11712,1.927-34.88529,0-41.7838-20.98975-75.65638-46.88168-75.65638-66.23008,0-46.88156,33.87258-46.88156,75.65638,0,41.78393.23215,115.38779,55.48961,118.68988,9.54124.57031,18.00467-2.6603,23.7897-19.533,4.81974,4.98908,10.92994,7.97951,17.58344,7.97951,15.55511,0,28.16451-16.306,28.16451-36.42051S1042.17314,130.56682,1026.618,130.56682Z"/><path class="cls-7" d="M923.29087,117.81854c-3.66039,28.69711-6.01821,54.41792-23.31394,79.34392-12.8246,18.48235-32.42566,32.8265-49.10954,47.68274-9.20474,8.19637,4.351,21.674,13.51442,13.51443,11.48853-10.23,23.31585-20.1734,34.46291-30.77576,23.11007-21.98079,36.058-50.96229,40.05388-82.29026q1.7524-13.73754,3.50456-27.47507c.65415-5.12833-4.86039-9.55614-9.55615-9.55614-5.70757,0-8.90008,4.41264-9.55614,9.55614Z"/><path class="cls-4" d="M907.867,164.35188c-.47615,2.06068.34122,4.24229,2.09127,6.20881,2.2922,2.57558,6.29342,4.31072,10.975,5.3926,4.54032,1.04927,8.76859,1.29365,11.936.08512,2.59214-.989,4.40067-2.63534,4.89568-4.77744,1.09984-4.75973-4.70137-10.16494-12.95737-12.07285C916.55149,157.2802,908.967,159.59215,907.867,164.35188Z"/><path class="cls-8" d="M920.3956,107.91111h17.50205a3.52795,3.52795,0,0,1,3.52795,3.52795v58.23868a3.23449,3.23449,0,0,1-3.23449,3.23449H920.10217a3.23453,3.23453,0,0,1-3.23453-3.23453V111.43906a3.528,3.528,0,0,1,3.528-3.528Z" transform="translate(55.47424 -205.60198) rotate(13.01234)"/><path class="cls-28" d="M1095.61264,524.06291l5.55072,3.44811c2.49581,3.97434,4.81591,8.40049,4.08391,12.05706a5.5595,5.5595,0,0,0-1.5881,3.388c-1.56772,8.8063-5.407,29.31685-8.11585,35.00569l-2.52206,5.2964a33.666,33.666,0,0,1-16.33616,16.11548h0a22.74,22.74,0,0,1-4.96742-19.42917l9.00215-43.00431,11.16858-12.35266A2.9336,2.9336,0,0,1,1095.61264,524.06291Z"/><path class="cls-7" d="M1089.67406,540.83535v.00013a5.99408,5.99408,0,0,1-8.61454-1.2604L1069.4288,523.0283l15.91748-10.19985,6.98261,9.971A13.27172,13.27172,0,0,1,1089.67406,540.83535Z"/><path class="cls-28" d="M1080.502,491.0175h0V430.79009a4.22337,4.22337,0,0,1,4.22343-4.22344h8.78911c2.25767,0,6.63617,2.67967,6.63617,4.93734l-2.54831,42.41311A17.10043,17.10043,0,0,1,1080.502,491.0175Z"/><path class="cls-7" d="M1091.30969,441.9481c0-6.97038-3.83749-10.44411-10.80774-10.44411v37.05657c4.18088-.87636,6.79212-1.108,10.74391.85165.04141-.41512.06383-.83585.06383-1.2618Z"/><path class="cls-7" d="M1068.099,445.13424l5.95539,1.74852a46.45288,46.45288,0,0,1,6.70791,1.90677c3.61222,1.268,8.38927-1.60212,9.78243-5.16771a10.38557,10.38557,0,0,0-6.66356-13.77282l-13.755-2.01291a2.02238,2.02238,0,0,0-2.30469,1.79426l-1.36895,13.30789A2.02235,2.02235,0,0,0,1068.099,445.13424Z"/><path class="cls-29" d="M972.726,390.81839c13.80507,16.82327,82.83,30.563,102.0706,34.11123a6.52951,6.52951,0,0,1,5.32838,5.99h0a26.08834,26.08834,0,0,1-3.12716,14.23929l-2.8016,5.13586a1.4888,1.4888,0,0,1-1.57588.75825c-11.20821-2.03852-107.111-21.18407-127.71177-37.74895-19.96011-16.04973-2.71764-138.21448-2.71764-138.21448l47.183.81788c.94707.07721,12.36476,8.52217,12.09642,9.43382-2.46,8.35628-19.49479,52.67756-22.58283,65.83115C976.432,361.63226,967.65916,384.64435,972.726,390.81839Z"/><path class="cls-10" d="M1075.37794,446.77408l.19049-1.26039c-1.03844-.15621-104.82047-15.35418-124.51925-40.25278-14.31486-18.09361,8.32811-123.35111,8.381-124.3261l-1.2716-.06969c-.21839,4.00288-21.74075,109.34231-8.08489,125.2157C971.09211,430.51258,1071.1182,446.13089,1075.37794,446.77408Z"/><path class="cls-30" d="M969.65626,286.04773s32.95291,117.87493,44.17743,147.65571c10.28509,27.2884,56.60067,101.99707,56.60067,101.99707h1.4152a21.05432,21.05432,0,0,0,20.95459-19.00845h0s-35.05933-63.5806-44.04428-86.38832c-6.63247-16.8364-9.47523-42.60932-10.69065-62.38723a140.32407,140.32407,0,0,1,4.53662-43.44542c1.77235-6.91126,2.677-26.77938,2.677-33.95643l-1.46222-13.392Z"/><path class="cls-10" d="M1026.36039,345.0628c5.34737-11.37475,8.17382-36.77384,8.17382-49.34488V291.251h-1.27415v4.46693c0,12.38514-2.78479,37.5963-8.053,48.80234Z"/><path class="cls-10" d="M1083.53188,529.63019l1.06749-.69556c-64.32293-98.70148-58.24955-183.24852-58.18049-184.0915l-1.27033-.1032C1025.07949,345.5866,1018.97375,430.56851,1083.53188,529.63019Z"/><path class="cls-30" d="M953.92787,273.80211a144.049,144.049,0,0,0,28.66385,58.87936c4.35442,5.35845,7.99849,10.17806,9.19428,12.64839h0a3.16971,3.16971,0,0,0,6.01745-1.19872l3.53615-61.3762a3.16974,3.16974,0,0,0-1.97837-3.12167l-42.94392-17.32822a3.16965,3.16965,0,0,0-4.2767,3.64267Z"/><path class="cls-10" d="M1038.90137,155.82537s4.518-7.03077-15.20612-15.31276c-14.7868-6.20882-41.78877-18.44464-62.03722-27.70862a25.39961,25.39961,0,0,0-34.80425,15.50707l-1.46489,4.674a60.26775,60.26775,0,0,0-2.12809,20.18449s5.89079,47.23909,11.736,61.85234c10.11971,25.29933,6.83417,54.2863,6.83417,54.2863-.0228,6.43218-.263,7.17259,5.54869,9.929,0,0,68.73225,34.66639,93.72272,3.63809,1.92193-2.38623,2.88112-4.51037,2.71828-5.75254h0c-19.8699-38.71157-18.84128-43.3756-11.18808-86.21045Z"/><path class="cls-9" d="M1041.10221,282.87522c1.81325-2.46994,2.88112-4.51037,2.71854-5.75254-18.47127-35.98615-18.8781-37.18411-12.69681-77.14588l.001-.00637-21.04034,21.44591a19.54794,19.54794,0,0,1-22.40941,3.93471l-5.70846-2.73867s29.35558,21.59727,28.3499,40.64357c-.73787,13.97618-1.27951,24.33071-1.588,31.94288C1021.71241,295.61063,1034.07259,292.4515,1041.10221,282.87522Z"/><g class="cls-31"><path class="cls-2" d="M1048.75987,430.30374c1.80471,4.581,4.67092,10.82062,8.084,17.84566q2.89151.57222,5.21957,1.01856c-3.81035-7.77947-7.015-14.70207-8.97615-19.68108a95.41588,95.41588,0,0,1-3.13658-9.56c-1.54211-.323-3.15162-.66753-4.81375-1.03118A99.99732,99.99732,0,0,0,1048.75987,430.30374Z"/></g><g class="cls-31"><path class="cls-2" d="M1013.83369,433.70344a240.83359,240.83359,0,0,1-7.30688-25.10807c-2.82735-.93791-5.59583-1.91264-8.2625-2.92457,2.75178,11.40507,5.502,21.35238,8.01977,28.03264.40212,1.0671.8654,2.21447,1.37277,3.41919,2.83155.72244,5.65622,1.424,8.455,2.10311C1015.23054,437.22634,1014.46376,435.375,1013.83369,433.70344Z"/></g><path class="cls-7" d="M988.269,151.84543c-6.52162,6.6312-27.623,24.92052-27.623,24.92052s-9.25073-25.9099-9.47932-34.96352c-.20119-7.97059,6.35853-29.21849,8.39259-30.76862l10.20469,4.48119,31.42991,14.70615C1004.771,132.92936,992.68517,147.35506,988.269,151.84543Z"/><path class="cls-7" d="M1018.0598,156.49723q-5.63087,44.14557-11.2616,88.29089,2.36649-4.12577,4.733-8.25141-35.619,23.58113-71.23788,47.16238c-10.21055,6.75976-.64918,23.31891,9.64623,16.50295q32.3118-21.39182,64.62349-42.78337c2.976-1.97035,7.08506-3.97574,9.29571-6.84042,2.41006-3.12307,2.43211-8.772,2.93119-12.68457q2.8959-22.70368,5.79179-45.40749,2.2952-17.99442,4.59039-35.989c.65415-5.12833-4.86038-9.55614-9.55615-9.55614-5.70756,0-8.90008,4.41264-9.55614,9.55614Z"/><path class="cls-10" d="M916.56054,177.70016c-2.93578,6.9993-1.06864,15.37112,4.45074,19.95616l16.41414,19.563,1.642-72.28027Z"/><path class="cls-7" d="M1092.88467,566.78143l5.09662-28.09061a14.96027,14.96027,0,0,0-2.42943-11.20069l-2.74771-3.9588-10.72455,14.89523-7.42907,37.52011a14.58562,14.58562,0,0,1,10.88292,1.64684l.28426.17A17.06255,17.06255,0,0,0,1092.88467,566.78143Z"/><path class="cls-28" d="M1101.66371,434.03179h-9.39687v-7.46514h7.22636a2.17046,2.17046,0,0,1,2.17051,2.17052Z"/><path class="cls-13" d="M972.64224,140.79164h-.00013a10.9365,10.9365,0,0,1-10.93643-10.93656V108.93783l21.873-37.54126v58.45851A10.9365,10.9365,0,0,1,972.64224,140.79164Z"/><path class="cls-7" d="M937.85048,55.19368l-1.86625,11.19776a72.56766,72.56766,0,0,0,4.42055,39.41911l5.16184,12.61156a4.29527,4.29527,0,0,0,3.79634,2.66438s2.99018,1.34984,9.73822,0,17.418-5.12566,21.77527-7.922c7.69894-4.94091,7.69894-27.24572,7.69894-27.24572v-35.081Z"/><ellipse class="cls-25" cx="961.56081" cy="50.83773" rx="38.72698" ry="18.70953"/><ellipse class="cls-32" cx="959.10115" cy="40.60858" rx="28.87418" ry="10.95364"/><path class="cls-33" d="M1012.41428,112.63478a14.68724,14.68724,0,0,1-7.412-2.2341c-20.56559-12.01921-20.79353-44.98664-20.63057-51.4731l6.22169-3.22437c-.09059,3.59095-.21992,38.76878,17.62357,49.19772,3.58852,2.09662,6.38784,1.75323,8.32-1.02276,2.426-3.4866,2.25551-9.00126-.344-11.13457-1.63818-1.34449-10.29031-5.37591-7.4673-6.64267a11.139,11.139,0,0,1,11.508,1.71781c5.71763,4.69092,5.39629,14.14628,1.53242,19.69828A11.37748,11.37748,0,0,1,1012.41428,112.63478Z"/><path class="cls-25" d="M1014.9975,110.36666a14.68805,14.68805,0,0,1-7.41187-2.2341c-20.56572-12.01921-20.79367-44.98677-20.6307-51.47322l6.22169-3.22437c-.0906,3.59107-.2198,38.76877,17.62357,49.19784,3.58852,2.09662,6.38783,1.75311,8.32-1.02289,2.42611-3.48647,2.25563-9.00113-.344-11.13444a4.78084,4.78084,0,0,0-4.859-.83062l-.0065.00293a8.681,8.681,0,0,1-3.925.80934l-3.3644-.1348a7.47956,7.47956,0,0,1,4.68761-6.48952A11.1389,11.1389,0,0,1,1022.817,85.5505c5.7175,4.69105,5.39616,14.14641,1.53229,19.6984A11.37748,11.37748,0,0,1,1014.9975,110.36666Z"/><g class="cls-34"><path class="cls-24" d="M954.94579,111.5399c0,.77609-.92746,1.40514-2.07152,1.40514s-2.07139-.62905-2.07139-1.40514c0-.776.92733-1.40514,2.07139-1.40514S954.94579,110.76394,954.94579,111.5399Z"/></g><path class="cls-25" d="M955.24674,108.54169c-4.74622.41295-6.61017-1.21465-7.028-1.97621a.64961.64961,0,0,1,.06256-.86489l.00293-.0023a.58351.58351,0,0,1,.7831.0567c.65937.68422,2.36113,2.05967,6.0591,1.61945,4.22573-.69811,5.98954-2.67547,6.329-3.14894a.59777.59777,0,0,1,.72346-.2189l.00318.0014a.58828.58828,0,0,1,.24413.87929A10.80736,10.80736,0,0,1,955.24674,108.54169Z"/><path class="cls-24" d="M953.25422,85.63153a1.19384,1.19384,0,0,0-2.22059-.49411l-5.11114,8.77394A2.80423,2.80423,0,0,0,948.318,98.127l3.40428-.54941a2.79089,2.79089,0,0,0,2.335-3.005Z"/><path class="cls-25" d="M961.56081,88.9874c2.47517-.47361,8.86441-.6934,11.12246.74321,2.08171,1.32435,1.18139-1.21554-.89051-2.53365-3.272-2.08171-6.411-1.04774-10.00668-.3597-2.41337.46176-3.69708,2.61087-1.28932,2.15014Z"/><path class="cls-25" d="M936.049,81.733c1.39023.44187,8.12858,3.00318,9.31724,3.631,1.003.52979.45576-1.95328-2.46867-3.46315a29.07577,29.07577,0,0,0-4.65486-2.11356c-2.3498-.74691-3.89611.72091-1.55664,1.46438Z"/><path class="cls-7" d="M981.74772,90.204c1.62735,2.81855,6.0033,3.33866,9.77415,1.16152,3.77073-2.177,5.50842-6.22679,3.88107-9.04534s-6.0033-3.33854-9.774-1.16152C981.85806,83.33564,980.1205,87.3854,981.74772,90.204Z"/><path class="cls-4" d="M1006.26994,203.09988c-.31153,2.092.67593,4.202,2.57621,6.02381,2.48893,2.38611,6.615,3.79889,11.3676,4.50668,4.60912.68651,8.84352.59529,11.90518-.86018,2.50575-1.19108,4.1782-2.97553,4.50209-5.15012.71964-4.83185-5.49134-9.76078-13.87259-11.00894S1006.98945,198.268,1006.26994,203.09988Z"/><path class="cls-8" d="M1016.83627,145.04948h17.50192a3.52788,3.52788,0,0,1,3.52788,3.52788V206.816a3.23453,3.23453,0,0,1-3.23453,3.23453h-18.08892a3.23445,3.23445,0,0,1-3.23445-3.23445V148.57759a3.52812,3.52812,0,0,1,3.52812-3.52812Z" transform="translate(37.33807 -149.12528) rotate(8.47009)"/><path class="cls-7" d="M852.32005,246.85977l6.26029,3.39128a9.54987,9.54987,0,0,1,1.39953,15.86792l-14.08882,11.21738a15.04156,15.04156,0,0,1-17.377.96556l-6.58839-4.14355a6.51312,6.51312,0,0,1-.23393-10.8726l23.20321-16.02489A7.10821,7.10821,0,0,1,852.32005,246.85977Z"/><path class="cls-7" d="M859.79,276.0083l3.81494-18.95009-9.76256,8.35921L852.64368,276.687a3.0608,3.0608,0,0,0,4.68774,2.90558h0A5.54715,5.54715,0,0,0,859.79,276.0083Z"/><path class="cls-7" d="M951.49322,276.52841l-8.76885,3.12868-4.57191-.49347-.00778-.00536-.00675.00383-14.63224-1.57944a5.54849,5.54849,0,0,0-4.15909,1.26383,3.06094,3.06094,0,0,0,1.35748,5.34558l5.94469,1.20624-17.12118,9.29354a6.51308,6.51308,0,0,0-.92974,10.83527l6.10752,4.8242a15.04209,15.04209,0,0,0,17.38084.89764l27.39709-17.38Z"/><g class="cls-16"><path class="cls-17" d="M770.57843,290.61494a3.41706,3.41706,0,0,0,2.0161,2.81524l94.3598,54.47856a7.47794,7.47794,0,0,0,1.04047.49106c.05479.02115.11327.03695.16857.057a9.28178,9.28178,0,0,0,.94568.288c.06536.01606.13009.03313.196.048a10.8811,10.8811,0,0,0,1.09654.18807c.05632.00675.11263.013.16933.01885.37473.03925.75367.0604,1.13324.06307.06064.00039.12091-.00038.18131-.00089.38479-.00318.76933-.02306,1.14852-.06383.06778-.00727.134-.01963.20157-.028.2812-.03543.55642-.08652.8296-.14271.23241-.04778.45844-.107.68244-.17.21711-.06091.43461-.12079.64179-.196.08932-.03236.17761-.06536.26477-.10027a7.36451,7.36451,0,0,0,.95306-.45245l56.93654-33.08771c.1608-.09353.28146-.20043.42276-.3007a5.29756,5.29756,0,0,0,.47564-.35218,3.82436,3.82436,0,0,0,.53973-.59554c.02676-.03695.05072-.07466.07556-.112a2.85457,2.85457,0,0,0,.32376-.63312c.0088-.0251.01376-.05059.02179-.07569a2.36628,2.36628,0,0,0,.11671-.69912l-.00713,2.54945c0,.01987-.00038.03988-.001.05988a2.31643,2.31643,0,0,1-.04472.3913,2.46016,2.46016,0,0,1-.07123.248c-.00777.02522-.01312.05045-.02179.07555-.00688.02-.00968.04027-.0172.06014a2.75288,2.75288,0,0,1-.18131.38735c-.03542.06294-.084.12359-.125.18564-.025.03759-.04855.07492-.07569.11225-.02612.03593-.04536.07314-.07339.10869a3.91717,3.91717,0,0,1-.42174.45372c-.01275.01173-.03173.02154-.04447.03313a5.29371,5.29371,0,0,1-.4745.351c-.11722.0832-.21023.174-.34121.25266-.0274.01644-.05467.03275-.0827.04893L876.6003,350.45807a7.35468,7.35468,0,0,1-.95306.45219c-.08779.03517-.17584.068-.26567.10066-.0939.034-.183.07441-.27878.10563-.11595.03772-.24324.05683-.362.09021-.22527.06307-.4499.12206-.6832.17-.084.01746-.16207.04625-.24693.06154-.191.03441-.38632.05645-.58076.08091-.0688.00867-.13531.021-.20412.02842-.02892.00305-.05657.009-.08549.01185-.2505.025-.503.04179-.75621.05045-.10181.00344-.20323.00051-.30491.0014-.06128.00051-.12168.00128-.18258.00077-.07034-.00038-.14067.0028-.21087.001q-.337-.00841-.672-.03593c-.084-.00688-.16666-.01924-.25012-.02791-.05683-.006-.11251-.01223-.16921-.019-.08116-.00969-.163-.0158-.24387-.02714q-.34153-.04856-.67619-.11773c-.0604-.01236-.11761-.02995-.17736-.04345-.06537-.01465-.12882-.03147-.19355-.0474-.11378-.028-.22947-.05186-.34122-.08358-.209-.05964-.40836-.13277-.6084-.20553-.05441-.01987-.11175-.03516-.16577-.05593-.01784-.00688-.03733-.0116-.05517-.0186a7.42938,7.42938,0,0,1-.98569-.47284l-94.3598-54.47844a3.41668,3.41668,0,0,1-2.01609-2.81524Z"/><path class="cls-35" d="M933.50231,309.23528c2.67585,1.54491,2.68986,4.04645.04141,5.58563l-56.93628,33.08771a10.632,10.632,0,0,1-9.65311.00012l-94.35968-54.47856c-2.67585-1.54491-2.68973-4.04659-.03147-5.5915l56.93641-33.0877a10.62859,10.62859,0,0,1,9.643.00573Z"/><path class="cls-7" d="M851.47248,247.384l6.2603,3.39129a9.54982,9.54982,0,0,1,1.39965,15.86791l-14.08881,11.21739a15.0416,15.0416,0,0,1-17.377.96555l-6.58851-4.14354a6.51311,6.51311,0,0,1-.23381-10.8726l23.20321-16.02489A7.108,7.108,0,0,1,851.47248,247.384Z"/><path class="cls-7" d="M858.94246,276.53249l3.81494-18.95009-9.76243,8.3592-1.19885,11.26963a3.06091,3.06091,0,0,0,4.68786,2.90558h0A5.54733,5.54733,0,0,0,858.94246,276.53249Z"/><path class="cls-7" d="M950.64578,277.0526l-8.769,3.12855-4.57178-.49335-.00778-.00535-.00688.00382-14.63224-1.57944a5.54874,5.54874,0,0,0-4.15909,1.26383,3.06094,3.06094,0,0,0,1.35761,5.34559l5.94456,1.20624L908.68,295.216a6.51307,6.51307,0,0,0-.92975,10.83527l6.10765,4.82419a15.04209,15.04209,0,0,0,17.38085.89764l27.39708-17.38Z"/><path class="cls-19" d="M824.74649,272.24051a8.19094,8.19094,0,0,1,7.4315.00446l72.71908,41.98435c2.06209,1.19057,2.07292,3.11849.032,4.3046l-43.87864,25.49949c-.13811.08014-.29483.14105-.44353.21049l-80.10114-46.24627a4.1057,4.1057,0,0,1,.36211-.25776Z"/><path class="cls-20" d="M890.17691,288.65452a.58292.58292,0,0,1,.00153,1.10176l-11.67086,6.78245a2.15291,2.15291,0,0,1-1.94652.00267L857.241,285.387a.5871.5871,0,0,1-.00153-1.10966l11.65914-6.77556a2.16334,2.16334,0,0,1,1.95621-.00281Z"/></g><g class="cls-16"><path class="cls-21" d="M759.40641,227.23845c.01962-.01618.0395-.03173.06026-.04651a1.11714,1.11714,0,0,1,.11175-.07058,1.16179,1.16179,0,0,1,.11824-.05721,1.24872,1.24872,0,0,1,.12627-.04511c.02077-.00624.04294-.01057.06434-.01593l.01593-.004c.018-.00433.03542-.00968.05377-.01337.04663-.00918.09492-.01631.14436-.02141.05033-.00522.10231-.00828.15519-.00917.05441-.0009.11009.00038.16743.00407.02917.00179.06026.00625.09046.0093l.02459.00268c.02421.00268.04765.004.0725.00739q.10263.01452.21024.03835.11907.02619.24387.06358c.06256.01873.12792.04332.19265.06639l.04536.01567c.02141.008.04167.0135.06345.02191q.20622.07971.42493.18807.17545.08676.358.19214l95.60287,55.19643a8.30417,8.30417,0,0,1,.94937.65555c.03172.02472.065.04128.09671.06664q.22819.18289.45041.38364c.02459.02217.04854.04613.07314.06855l.05937.05556c.06447.06014.12971.11938.19329.18131q.13608.13282.269.27114.12.1248.23674.25368l.00714.00777.0056.00663c.06843.07568.13659.15213.20323.22947q.10072.11736.199.23712c.06218.0762.12385.15316.18412.23062.02612.03364.05173.06779.07747.10168l.02522.033c.02421.032.04919.06371.07276.09582q.08542.11448.16742.23024.08123.11524.15953.23151.07893.11717.1543.23521l.02714.044.01363.022c.03606.05747.0725.11493.10767.17265q.07454.12423.1455.24871.07378.12978.14245.25968c.02931.05555.057.1111.085.16666l.0186.03656c.0116.02345.02434.047.03581.07046q.07281.14832.13811.29586.07512.169.14029.33638c.01465.03708.02548.07339.03924.11047.01249.03364.02332.06651.03517.1.02548.07186.05415.14449.07645.21584a5.53384,5.53384,0,0,1,.14933.57159L874.43781,347.961a2.45579,2.45579,0,0,1-.12869,1.68163,1.16594,1.16594,0,0,1-.2728.32911l-1.073.88669a1.994,1.994,0,0,0,.40161-2.01062L861.41788,289.874a5.87427,5.87427,0,0,0-.22578-.7887c-.01185-.03262-.02242-.06511-.03478-.09786a8.21406,8.21406,0,0,0-.35345-.81342l-.01924-.038c-.14284-.28248-.30338-.56572-.47972-.84642l-.01427-.02293c-.17915-.28363-.3746-.56433-.58267-.8384l-.02205-.02892c-.21-.27522-.43244-.54381-.66549-.80119l-.00547-.00624c-.22655-.25-.46329-.48787-.70589-.71365l-.05975-.05607c-.20221-.18551-.41054-.35485-.61988-.51858a8.305,8.305,0,0,0-.9495-.65567L761.0772,228.45157a5.55523,5.55523,0,0,0-.84616-.402l-.046-.01593a3.25947,3.25947,0,0,0-.71888-.17571l-.025-.00255a1.839,1.839,0,0,0-.611.03058l-.01619.004a1.19889,1.19889,0,0,0-.48086.23534Z"/><path class="cls-22" d="M761.07708,228.4517c-2.18033-1.25886-3.58649-.50571-3.14474,1.67487l11.94684,58.97378a10.88822,10.88822,0,0,0,4.74787,6.23889l95.60287,55.1963c2.17192,1.254,3.57833.501,3.13493-1.68775L861.418,289.87414a10.88329,10.88329,0,0,0-4.73807-6.22614Z"/></g><path class="cls-4" d="M804.32322,281.76824l10.51622,6.07146a9.1751,9.1751,0,0,1,3.99766,5.25308l2.13866,10.5575c.37307,1.84154-.81214,2.47619-2.64641,1.41712l-10.5161-6.07147a9.17464,9.17464,0,0,1-3.99778-5.2532l-2.13866-10.55738c-.37307-1.84153.81214-2.47619,2.64641-1.41711Z"/><path class="cls-23" d="M804.86741,281.76824l10.5161,6.07146a9.17477,9.17477,0,0,1,3.99778,5.25308l2.13866,10.5575c.37307,1.84154-.81214,2.47619-2.64641,1.41712l-10.5161-6.07147a9.17468,9.17468,0,0,1-3.99778-5.2532L802.221,283.18535c-.37307-1.84153.81214-2.47619,2.64641-1.41711Z"/><g class="cls-36"><g class="cls-37"><path class="cls-4" d="M820.52815,271.50354a3.53454,3.53454,0,0,1-1.74571-.5549L744.846,228.26147a9.01531,9.01531,0,0,1-3.9774-5.2504l-9.23939-45.60817a2.01514,2.01514,0,0,1,.60815-2.22659c.38722-.27942,1.26141-.61529,2.7667.25318l73.93628,42.68717a9.00094,9.00094,0,0,1,3.97026,5.24034l9.23914,45.6083a2.02261,2.02261,0,0,1-.60879,2.2341A1.706,1.706,0,0,1,820.52815,271.50354Zm-87.28137-95.35862a.452.452,0,0,0-.26528.066c-.156.112-.19635.48022-.10359.93943l9.23939,45.60817a7.83528,7.83528,0,0,0,3.3658,4.39914l73.93641,42.6873c.69862.40378,1.19541.45233,1.37736.31981.15685-.11263.19788-.48468.10423-.947L811.662,223.60966a7.8214,7.8214,0,0,0-3.35867-4.3892L734.367,176.53316A2.43489,2.43489,0,0,0,733.24678,176.14492Z"/></g><path class="cls-4" d="M648.07871,46.58436c-1.68621-.97358-2.7737-.39117-2.432,1.2953L654.886,93.48809a8.42041,8.42041,0,0,0,3.67185,4.825l73.93628,42.68705c1.67959.96975,2.76734.38747,2.42434-1.30525L725.6792,94.08643a8.41707,8.41707,0,0,0-3.66421-4.815Z"/></g><g class="cls-38"><path class="cls-8" d="M751.98472,166.00522c-1.68608-.97346-2.77357-.391-2.432,1.29543L758.792,212.909a8.42062,8.42062,0,0,0,3.67185,4.825l73.93629,42.68717c1.67971.96976,2.76733.38747,2.42445-1.30524l-9.23926-45.60842a8.41677,8.41677,0,0,0-3.66434-4.815Z"/></g><path class="cls-25" d="M959.89422,78.70193c1.26141-.2291,8.71265,2.854,11.39232,3.07389Z"/><path class="cls-25" d="M959.89422,79.17973c1.75043-.12869,3.943.99754,5.56346,1.52313a30.26124,30.26124,0,0,0,5.82886,1.55077c.61007.06918.60523-.88694,0-.95562a34.84516,34.84516,0,0,1-6.61986-1.85759c-1.436-.46583-3.22335-1.33021-4.77246-1.2163-.60956.04472-.61453,1.00072,0,.95561Z"/><path class="cls-25" d="M936.70986,75.64893c2.06973.12971,6.199.16258,8.27065.06574Z"/><path class="cls-25" d="M936.70986,76.12674c2.74771.15748,5.52065.17952,8.27065.06574.61274-.02523.61593-.981,0-.95561-2.75.11378-5.52281.09174-8.27065-.06575-.6144-.03517-.61236.92058,0,.95562Z"/><g class="cls-26"><path class="cls-27" d="M1101.08117,669.82216a72.21452,72.21452,0,0,0-9.34973-2.29526,31.01137,31.01137,0,0,0-9.01438-4.33645c-16.58552-5.41145-43.389-5.41132-59.86645.00013-16.47989,5.41235-16.39274,14.18616.19278,19.59762a72.21155,72.21155,0,0,0,9.35088,2.29551,31.00613,31.00613,0,0,0,9.01323,4.3362c16.58769,5.41209,43.39127,5.412,59.87117-.00026C1117.75626,684.00807,1117.66886,675.23425,1101.08117,669.82216Z"/></g></g><g id="device"><g class="cls-39"><path class="cls-2" d="M867.27643,587.16367c8.60232,4.96665,8.64781,13.01623.1013,17.983L431.26722,858.58637c-8.54638,4.96664-22.45605,4.97391-31.05836.00739L181.19856,732.14811c-8.60231-4.96652-8.63468-13.02337-.0883-17.99L617.22064,460.71841c8.54664-4.96665,22.44331-4.96691,31.04563-.00026Z"/></g><g class="cls-16"><g class="cls-40"><path class="cls-2" d="M293.31457,577.90032c-7.53189-4.34855-7.55878-11.39016-.07593-15.73871l4.68467-2.72249c7.483-4.34868,19.63954-4.35594,27.17144-.00739l4.71513,2.72223c7.532,4.34869,7.57191,11.39755.08881,15.74624l-4.68468,2.72235c-7.48285,4.34856-19.65228,4.34868-27.18431,0l-4.71513-2.72223Zm417.47756-232.705L818.7488,407.52418l-61.38257,35.67157-30.67866,17.82858L451.09864,621.17909,222.79812,489.36964l367.65015-213.6549,120.34386,69.48057Zm-15.63908-29.66725,6.57131-3.81876,54.51985,31.47705-6.57131,3.81889-54.51985-31.47718Zm163.03141,63.70458L639.17429,252.78712c-8.60231-4.96664-22.51224-4.974-31.05862-.00739L171.99255,506.22681c-8.5465,4.96678-8.48828,13.02375.114,17.99027L391.11688,650.66273c8.60232,4.96652,22.49925,4.96665,31.04588-.00013L858.28589,397.21552c8.54637-4.96664,8.50089-13.01623-.10143-17.98288Z"/><polygon class="cls-8" points="590.448 275.715 222.798 489.37 451.099 621.179 726.688 461.024 618.731 398.695 579.253 421.638 682.392 481.185 612.919 521.559 509.779 462.011 434.482 505.769 537.621 565.317 476.251 600.981 373.112 541.434 352.575 553.368 232.231 483.888 498.387 329.215 529.066 311.386 590.448 275.715 590.448 275.715"/><polygon class="cls-41" points="756.244 343.186 701.724 311.709 695.153 315.528 749.673 347.005 756.244 343.186 756.244 343.186"/><path class="cls-41" d="M324.542,567.35607l-8.41106-4.85618a10.18357,10.18357,0,0,0-9.22207.00013l-8.35666,4.85631c-2.53212,1.47152-2.519,3.87011.02995,5.34176l8.41106,4.85617a10.211,10.211,0,0,0,9.23519.00739l8.35666-4.8563c2.53238-1.47165,2.50587-3.87763-.04307-5.34928Zm-26.92208,5.90124c-3.08409-1.78063-3.1004-4.67958-.03632-6.46021l8.35666-4.8563a12.311,12.311,0,0,1,11.153-.00026l8.41107,4.85618c3.08447,1.78088,3.10065,4.67984.03657,6.46046l-8.35666,4.85644a12.3105,12.3105,0,0,1-11.15317-.00013l-8.41119-4.85618ZM329.80988,562.154l-4.71513-2.72223c-7.5319-4.34855-19.68847-4.34129-27.17144.00739l-4.68467,2.72249c-7.48285,4.34855-7.456,11.39016.07593,15.73871l4.71513,2.72223c7.532,4.34868,19.70146,4.34856,27.18431,0l4.68468-2.72235c7.4831-4.34869,7.44321-11.39755-.08881-15.74624Z"/><path class="cls-2" d="M298.58218,572.69809c-2.54895-1.47165-2.56207-3.87024-.02995-5.34176L306.90889,562.5a10.18357,10.18357,0,0,1,9.22207-.00013l8.41106,4.85618c2.54894,1.47165,2.57545,3.87763.04307,5.34928l-8.35666,4.8563a10.211,10.211,0,0,1-9.23519-.00739l-8.41106-4.85617Zm26.92221-5.90137-8.41107-4.85618a12.311,12.311,0,0,0-11.153.00026l-8.35666,4.8563c-3.06408,1.78063-3.04777,4.67958.03632,6.46021l8.41119,4.85618a12.3105,12.3105,0,0,0,11.15317.00013l8.35666-4.85644c3.06408-1.78062,3.0479-4.67958-.03657-6.46046Z"/><polygon class="cls-42" points="818.749 407.524 710.792 345.195 649.41 380.867 757.366 443.196 818.749 407.524 818.749 407.524"/><polygon class="cls-43" points="757.366 443.196 649.41 380.867 618.731 398.695 726.688 461.024 757.366 443.196 757.366 443.196"/><polygon class="cls-44" points="682.392 481.185 579.253 421.638 509.779 462.011 612.919 521.559 682.392 481.185 682.392 481.185"/><polygon class="cls-44" points="537.621 565.317 434.482 505.769 373.112 541.434 476.251 600.981 537.621 565.317 537.621 565.317"/><path class="cls-6" d="M386.42711,424.604l7.09053-4.12048L459.12517,458.362l-7.09053,4.12048L386.42711,424.604Zm22.145-12.8692,7.09028-4.12048,65.60752,37.87852-7.09027,4.12048-65.60753-37.87852Zm22.14477-12.8692,7.09054-4.12048L503.415,432.62359l-7.09053,4.12049-65.60753-37.87853Zm22.14491-12.86907,7.0904-4.12061,65.60753,37.87852-7.09053,4.12061-65.6074-37.87852Zm22.1449-12.86932,7.09028-4.12036,65.60752,37.87852-7.09027,4.12036-65.60753-37.87852Zm45.98634-13.17092,3.74766-2.17791L569.34563,383.531l-3.74767,2.17791-44.6049-25.75267Zm37.57209,4.0025c-12.32348-7.115-12.38859-18.63767-.14487-25.7528,12.23084-7.10786,32.13642-7.11525,44.4599-.00025,12.31112,7.10786,12.37585,18.64506.145,25.75292-12.24359,7.11512-32.14891,7.108-44.46.00013Zm152.227-18.76343L590.44827,275.71474,498.387,329.21488l-266.156,154.673,120.34386,69.48057,20.53667-11.9346,61.37007-35.66443,75.29746-43.7581,69.47344-40.37357,39.47835-22.94227L649.40956,380.867l61.38257-35.67169Z"/><path class="cls-8" d="M580.82434,370.5391c-8.28161,0-16.57137-1.82535-22.89614-5.47669-6.391-3.69-9.91482-8.66959-9.92259-14.02256-.00739-5.31934,3.46378-10.26853,9.77453-13.93605,12.56977-7.30459,33.087-7.30523,45.737-.00191h0c6.385,3.68689,9.90552,8.66653,9.91291,14.0232.00777,5.32239-3.46035,10.27158-9.76485,13.93541C597.3803,368.71247,589.10608,370.5391,580.82434,370.5391Zm-.20463-36.40293c-7.81909,0-15.62608,1.72329-21.55917,5.17128-5.49173,3.19162-8.51287,7.35683-8.50663,11.7287.00625,4.40538,3.07772,8.60295,8.64844,11.81879,11.94429,6.89711,31.316,6.89775,43.18244.00191,5.48586-3.1878,8.50319-7.35314,8.49694-11.72807-.00624-4.40908-3.074-8.60677-8.63875-11.81942C596.27039,335.86074,588.43919,334.13617,580.61971,334.13617Z"/><polygon class="cls-8" points="569.346 383.531 524.741 357.778 520.993 359.956 565.598 385.709 569.346 383.531 569.346 383.531"/><polygon class="cls-8" points="547.705 406.885 482.097 369.007 475.007 373.127 540.614 411.006 547.705 406.885 547.705 406.885"/><polygon class="cls-8" points="525.56 419.754 459.952 381.876 452.862 385.996 518.469 423.875 525.56 419.754 525.56 419.754"/><polygon class="cls-8" points="503.415 432.624 437.807 394.745 430.717 398.866 496.324 436.744 503.415 432.624 503.415 432.624"/><polygon class="cls-8" points="481.27 445.493 415.662 407.614 408.572 411.735 474.18 449.613 481.27 445.493 481.27 445.493"/><polygon class="cls-8" points="459.125 458.362 393.518 420.483 386.427 424.604 452.035 462.482 459.125 458.362 459.125 458.362"/></g></g><path class="cls-6" d="M864.63626,386.45454c-.02051.23049-.03657.4615-.079.69136-.03414.18806-.09161.37447-.14028.56177-.05759.2189-.11111.43818-.18819.6553-.06384.17927-.14857.35663-.226.5345-.09951.2291-.19889.45857-.3207.68473-.08779.16322-.19342.32389-.29293.48533-.15927.2584-.328.51514-.51756.76806-.11149.14895-.2324.29586-.35421.44251a12.63481,12.63481,0,0,1-.93026,1.00046c-.12232.11837-.23394.2398-.36314.35677-.21151.19023-.44633.37371-.67683.55871-.20131.16157-.39524.3258-.61159.48316-.24961.18131-.52482.35447-.79443.52967-.27484.17889-.535.36211-.83037.53387L422.20022,648.1803a22.77367,22.77367,0,0,1-2.073,1.0485c-.20463.09263-.41525.17889-.62472.2668q-.84285.3534-1.729.65492c-.21049.07173-.41664.149-.63006.21622-.37142.11672-.752.21954-1.13158.32287-.28707.07836-.5712.16195-.86311.23266-.40352.09773-.81533.179-1.22612.262-.27241.055-.54088.11735-.81622.16589-.8231.14551-1.65844.25993-2.50052.34823-.26121.02752-.52432.04434-.78692.06626-.49182.0409-.984.077-1.479.09836-.31726.01389-.63555.02077-.9537.02689-.40009.00726-.79979.0107-1.20025.00535q-.5059-.00669-1.01079-.02753c-.37039-.0149-.73977-.03389-1.10813-.05924q-.5103-.03517-1.017-.08473-.55119-.05314-1.09794-.12258-.4927-.06249-.98058-.13824c-.39028-.06065-.77775-.12908-1.16267-.20221-.306-.05823-.6107-.11837-.9128-.18463-.46048-.10065-.91319-.21495-1.36347-.33408-.2505-.06651-.50342-.12894-.7501-.20106-.80641-.23534-1.59447-.499-2.35616-.79533-.10716-.04192-.20807-.09059-.31433-.13378a23.7695,23.7695,0,0,1-2.97018-1.42387L172.13131,521.7423c-4.3255-2.49747-6.48429-5.77625-6.47461-9.05057l-.06919,24.40716c-.00981,3.27432,2.14912,6.553,6.47461,9.05031L391.07254,672.59472a23.75174,23.75174,0,0,0,2.97018,1.424c.06728.02727.12474.06575.193.09263.039.01555.08231.02574.1218.0409.76118.2965,1.54772.55948,2.35375.79482.06434.019.12333.04536.18806.06358.18526.05288.38021.08945.56776.13914.44889.11888.90007.23266,1.35914.33332.12181.0265.23878.06281.3611.08817.18182.0381.36988.06141.55311.09658.384.073.76946.14079,1.15884.20144.156.02408.30758.05849.46392.08066.17252.02433.3495.03656.52291.05848.36364.04625.72716.08677,1.09361.12232.17341.01656.34453.04332.51807.05772.16615.01363.33331.01542.5.02663q.55331.03842,1.10813.05937c.18514.00739.36989.0251.55554.02982.152.00382.30363-.004.45512-.002.4006.0051.8003.00178,1.20038-.00586.19826-.00331.39716.0042.595-.00268.12028-.00407.23878-.01873.35868-.02382.495-.02166.98721-.05747,1.4789-.09875.19941-.01656.40111-.01988.59949-.03988.06333-.00637.12423-.0195.18756-.02587q1.26313-.13226,2.49848-.348c.039-.007.08-.00968.119-.01656.23929-.04332.47029-.10334.707-.15124.40836-.0827.81724-.16348,1.21834-.26057.29191-.07059.57554-.15417.86311-.2324.38008-.10385.76016-.20616,1.13145-.32313.079-.02484.16284-.04332.24133-.06893.13442-.04358.25674-.10231.38976-.14742q.88376-.30122,1.72609-.654c.21062-.08817.42162-.17494.62816-.268a22.88964,22.88964,0,0,0,2.07165-1.04773l436.1105-253.43982q.13532-.07854.26809-.15837c.2022-.12181.37523-.25343.56725-.37868.26744-.17392.54088-.34555.78844-.52584.21687-.15787.41079-.3216.613-.48393.23062-.18513.46545-.36861.677-.5591.04243-.03809.094-.07339.13493-.11161.08575-.07874.14423-.164.22667-.24349a12.543,12.543,0,0,0,.93128-1.00136c.06192-.07466.14474-.14436.20374-.21941.058-.073.09594-.14984.151-.22361.18909-.25267.35677-.50877.51616-.76653.06664-.10818.15494-.21253.21635-.32122.03071-.05453.04817-.1111.07747-.16564.12232-.22616.2212-.45512.32058-.68422.0581-.13327.13646-.26413.18666-.39817.01708-.04536.02294-.0911.0395-.13646.077-.21737.1306-.43665.18807-.65543.0386-.14818.09747-.29483.12728-.44366.00778-.03924.00625-.07874.01313-.11824.04243-.23.05848-.46048.079-.69122.01363-.1501.04727-.29943.0516-.44978q.00286-.09614.00293-.19278l.06919-24.40691C864.69029,386.02642,864.65576,386.24035,864.63626,386.45454Z"/><polygon class="cls-45" points="797.665 439.638 797.665 446.858 739.903 480.623 739.903 473.36 797.665 439.638"/><path class="cls-41" d="M262.20231,586.36783v5.34571a.80511.80511,0,0,0,.385.68677l31.19942,19.08311a.805.805,0,0,0,1.225-.68677v-6.02776a6.93644,6.93644,0,0,0-3.46659-6.00623l-25.39807-14.67161A2.62946,2.62946,0,0,0,262.20231,586.36783Z"/><path class="cls-43" d="M312.21281,439.85046l-140.82013-70.909a5.72832,5.72832,0,0,1-.23088-10.11728l39.80645-22.53136,2.5627,1.51306-41.12353,23.24182a3.18022,3.18022,0,0,0,.12818,5.61672L315.823,438.3704Z"/><path class="cls-42" d="M830.445,455.931a6.28589,6.28589,0,0,1-3.06128-.79507l-46.914-26.14625,1.24064-2.22607,46.914,26.14625a3.73812,3.73812,0,0,0,3.79226-.0883l113.87588-70.57a3.74148,3.74148,0,0,0-.14436-6.44594l-58.33683-32.63156,2.33756-1.61257,57.2436,32.02048a6.28977,6.28977,0,0,1,.2426,10.8359l-113.87587,70.57A6.288,6.288,0,0,1,830.445,455.931Z"/><g class="cls-31"><polygon class="cls-2" points="373.674 466.242 308.993 428.898 240.941 468.446 412.313 567.388 472.635 602.214 540.686 562.667 373.674 466.242"/></g><g class="cls-16"><path class="cls-46" d="M323.75077,395.76541c-9.6647-5.58-25.33844-5.57518-34.94007.00472q.022-7.79.04409-15.57958c9.60163-5.5799,25.27536-5.58474,34.94019-.00484Q323.773,387.97589,323.75077,395.76541Z"/><path class="cls-46" d="M288.8107,395.77013c-4.76992,2.77191-7.15755,6.40618-7.168,10.046l.04421-15.5797c.01032-3.63974,2.39808-7.274,7.16788-10.04593Q288.8328,387.98053,288.8107,395.77013Z"/><path class="cls-46" d="M331.03255,405.95787c.01058-3.68944-2.41846-7.38461-7.28178-10.19246q.022-7.79.04421-15.57957c4.86332,2.80772,7.29224,6.503,7.28179,10.19245C331.06352,395.05214,331.04581,401.284,331.03255,405.95787Z"/><path class="cls-4" d="M327.25354,390.37422l-.04421,15.57957c.00879-3.12027-2.04591-6.24564-6.158-8.61964-8.1677-4.71564-21.4171-4.71564-29.53167,0-4.031,2.34266-6.04892,5.41553-6.05758,8.493l.04408-15.57957c.0088-3.07759,2.02667-6.15034,6.05771-8.493,8.11444-4.71564,21.364-4.71564,29.53167-.00012C325.20751,384.12857,327.26234,387.25394,327.25354,390.37422Z"/><path class="cls-46" d="M327.20933,405.95341c-.00854,3.07733-2.02437,6.14957-6.05363,8.49108q.022-7.79.04422-15.57957c4.02925-2.34152,6.045-5.41388,6.05362-8.49109C327.24029,395.04768,327.22246,401.27956,327.20933,405.95341Z"/><path class="cls-46" d="M291.61626,414.44c-4.11-2.373-6.16283-5.495-6.15416-8.61238l.04408-15.57958c-.00853,3.11722,2.04426,6.2394,6.15416,8.61226Q291.63837,406.65049,291.61626,414.44Z"/><path class="cls-46" d="M321.09556,381.75445c8.16732,4.71538,8.2188,12.39483.10436,17.11047-8.11457,4.71563-21.37226,4.71079-29.53958-.00459-8.1677-4.71564-8.21089-12.39012-.09645-17.10576S312.92786,377.03893,321.09556,381.75445Z"/><path class="cls-46" d="M321.1557,414.44449c-8.11444,4.71564-21.37225,4.7108-29.53944-.00446q.022-7.79017.04408-15.5797c8.16732,4.71538,21.425,4.72022,29.53958.00459Q321.17793,406.65489,321.1557,414.44449Z"/><path class="cls-4" d="M331.07677,390.37817l-.04422,15.5797c-.01032,3.64216-2.398,7.27885-7.16774,10.05077-9.60163,5.57977-25.27575,5.57506-34.93995-.00459-4.86356-2.808-7.29261-6.50072-7.28216-10.18774l.04421-15.5797c-.01045,3.68714,2.4186,7.37989,7.282,10.18787,9.66432,5.57964,25.33831,5.58435,34.93994.00446C328.67881,397.657,331.06645,394.02046,331.07677,390.37817Z"/><path class="cls-4" d="M323.795,380.18571c9.66433,5.57977,9.71555,14.66346.11391,20.24323-9.60163,5.57989-25.27562,5.57518-34.93994-.00446-9.6647-5.58-9.71567-14.65416-.11416-20.23393C298.45642,374.61065,314.13015,374.60581,323.795,380.18571Zm-32.13464,18.67462c8.16732,4.71538,21.425,4.72022,29.53958.00459,8.11444-4.71564,8.063-12.39509-.10436-17.11047-8.1677-4.71552-21.41723-4.71552-29.53167.00012s-8.07125,12.39012.09645,17.10576Z"/><polygon class="cls-46" points="372.748 389.208 372.704 404.788 304.652 444.335 304.697 428.755 372.748 389.208"/><path class="cls-46" d="M308.06672,351.864l64.68172,37.344-68.05186,39.54728-64.68173-37.34388ZM288.969,400.42448c9.66432,5.57964,25.33831,5.58435,34.93994.00446,9.60164-5.57977,9.55042-14.66346-.11391-20.24323-9.66483-5.5799-25.33856-5.57506-34.94019.00484-9.60151,5.57977-9.55054,14.6539.11416,20.23393Z"/><polygon class="cls-47" points="304.697 428.755 304.652 444.335 239.971 406.991 240.015 391.411 304.697 428.755"/></g><g class="cls-16"><path class="cls-8" d="M375.6056,404.15316l-.04408,15.57957a4.95563,4.95563,0,0,0-4.50834,0l.04422-15.57957A4.95452,4.95452,0,0,1,375.6056,404.15316Z"/><polygon class="cls-8" points="371.097 404.153 371.053 419.733 366.568 422.34 366.612 406.76 371.097 404.153"/><path class="cls-8" d="M365.63854,423.6361l.04422-15.57957a1.585,1.585,0,0,1,.92911-1.29671l-.04421,15.5797A1.58513,1.58513,0,0,0,365.63854,423.6361Z"/><path class="cls-44" d="M365.63842,423.6361l.04408-15.57957a1.5976,1.5976,0,0,0,.94389,1.31467l-.04421,15.5797A1.5973,1.5973,0,0,1,365.63842,423.6361Z"/><polygon class="cls-8" points="472.323 459.993 472.279 475.573 375.562 419.733 375.606 404.153 472.323 459.993"/><polygon class="cls-44" points="463.344 465.211 463.3 480.791 366.582 424.951 366.626 409.371 463.344 465.211"/><polygon class="cls-8" points="422.215 447.57 422.171 463.15 361.313 428.013 361.357 412.434 422.215 447.57"/><polygon class="cls-44" points="417.721 450.182 417.677 465.761 356.819 430.625 356.863 415.045 417.721 450.182"/><path class="cls-8" d="M355.87828,429.31041l.04421-15.57957a1.58405,1.58405,0,0,1,.92606-1.29722,4.96921,4.96921,0,0,1,4.50833,0l-.04421,15.57958a4.96933,4.96933,0,0,0-4.50821.00013A1.58357,1.58357,0,0,0,355.87828,429.31041Z"/><path class="cls-44" d="M355.87815,429.31041l.04409-15.57957a1.59414,1.59414,0,0,0,.94083,1.31416l-.04421,15.5797A1.594,1.594,0,0,1,355.87815,429.31041Z"/><polygon class="cls-8" points="412.904 452.981 412.86 468.561 352.002 433.424 352.046 417.844 412.904 452.981"/><polygon class="cls-44" points="408.411 455.592 408.366 471.172 347.508 436.035 347.552 420.456 408.411 455.592"/><path class="cls-8" d="M346.5646,434.72059l.04422-15.57957a1.58484,1.58484,0,0,1,.92911-1.29658,4.969,4.969,0,0,1,4.50821,0l-.04409,15.57958a4.96918,4.96918,0,0,0-4.50833,0A1.58558,1.58558,0,0,0,346.5646,434.72059Z"/><path class="cls-44" d="M346.56448,434.72059l.04421-15.57957a1.5975,1.5975,0,0,0,.94376,1.3148l-.04421,15.57957A1.59767,1.59767,0,0,1,346.56448,434.72059Z"/><polygon class="cls-8" points="403.586 458.396 403.542 473.976 342.683 438.839 342.728 423.26 403.586 458.396"/><polygon class="cls-44" points="399.1 461.003 399.056 476.583 338.198 441.446 338.242 425.867 399.1 461.003"/><path class="cls-8" d="M338.1831,438.83483a1.58484,1.58484,0,0,0-.92911,1.29658l.04408-15.57958a1.58565,1.58565,0,0,1,.92924-1.2967,4.95293,4.95293,0,0,1,4.50031.00471q-.0195,6.88005-.03912,13.75983l-.00509,1.81975A4.95256,4.95256,0,0,0,338.1831,438.83483Z"/><path class="cls-44" d="M337.25386,440.13141l.04409-15.57958a1.59756,1.59756,0,0,0,.94389,1.31468l-.04421,15.5797A1.59733,1.59733,0,0,1,337.25386,440.13141Z"/><path class="cls-8" d="M422.17092,463.14974q.02236-7.79.04408-15.57957a1.59385,1.59385,0,0,1,.941,1.31416l-.04408,15.5797A1.59441,1.59441,0,0,0,422.17092,463.14974Z"/><path class="cls-44" d="M423.156,448.88433l-.04421,15.5797a1.584,1.584,0,0,1-.92618,1.29709,4.96911,4.96911,0,0,1-4.50846.00013l.04421-15.5797a4.96846,4.96846,0,0,0,4.50834,0A1.58422,1.58422,0,0,0,423.156,448.88433Z"/><path class="cls-8" d="M412.86017,468.56056q.02237-7.79017.04422-15.5797a1.59455,1.59455,0,0,1,.941,1.31429l-.04421,15.57957A1.59388,1.59388,0,0,0,412.86017,468.56056Z"/><path class="cls-44" d="M413.84522,454.29515l-.04421,15.57957a1.58407,1.58407,0,0,1-.92618,1.29722,4.95484,4.95484,0,0,1-4.50834,0l.04421-15.57971a4.954,4.954,0,0,0,4.50834,0A1.58383,1.58383,0,0,0,413.84522,454.29515Z"/><path class="cls-8" d="M403.54166,473.976q.02255-7.79018.04408-15.57971a1.6,1.6,0,0,1,.945,1.31646l-.04421,15.5797A1.59921,1.59921,0,0,0,403.54166,473.976Z"/><path class="cls-8" d="M472.27876,475.57261q.02237-7.79017.04421-15.57971a1.58818,1.58818,0,0,1,.937,1.30856l-.04421,15.57957A1.58732,1.58732,0,0,0,472.27876,475.57261Z"/><path class="cls-44" d="M404.53065,459.71272l-.04421,15.5797a1.57521,1.57521,0,0,1-.92223,1.29021,4.954,4.954,0,0,1-4.50833,0l.04421-15.57958a4.95374,4.95374,0,0,0,4.50821,0A1.57582,1.57582,0,0,0,404.53065,459.71272Z"/><path class="cls-44" d="M403.58562,458.39639c1.253.72334,1.25937,1.888.02268,2.60666a4.95374,4.95374,0,0,1-4.50821,0l-60.85825-35.13654c-1.25262-.72309-1.25937-1.888-.01478-2.61138a4.95256,4.95256,0,0,1,4.50031.00471Z"/><path class="cls-44" d="M473.25986,461.30133l-.04409,15.5797a1.58744,1.58744,0,0,1-.93026,1.29824l.04409-15.57958A1.58722,1.58722,0,0,0,473.25986,461.30133Z"/><polygon class="cls-44" points="472.33 462.6 472.286 478.179 467.8 480.786 467.844 465.206 472.33 462.6"/><path class="cls-44" d="M467.84407,465.20635l-.04421,15.57971a4.95138,4.95138,0,0,1-4.50031.00458l.04421-15.57957A4.95175,4.95175,0,0,0,467.84407,465.20635Z"/><path class="cls-48" d="M372.74857,389.208l167.01212,96.42444-68.05186,39.54741-60.32119-34.82641-106.69093-61.598Zm95.09563,75.99837,4.48552-2.60666a1.37664,1.37664,0,0,0-.00675-2.60679L375.6056,404.15316a4.95452,4.95452,0,0,0-4.5082,0l-4.48553,2.60666c-1.24472.72334-1.23784,1.88829.01465,2.61138l96.71737,55.83987a4.95175,4.95175,0,0,0,4.50031-.00472Zm-50.12288-15.0248a4.96871,4.96871,0,0,0,4.50846,0c1.23657-.71863,1.23822-1.888-.01478-2.61138l-60.85812-35.13655a4.96921,4.96921,0,0,0-4.50833,0c-1.23657.71862-1.238,1.8883.01465,2.61151l60.85812,35.13642Zm-9.31049,5.41068a4.95374,4.95374,0,0,0,4.50821,0c1.23656-.71862,1.23835-1.88791-.01465-2.61137l-60.85825-35.13642a4.969,4.969,0,0,0-4.50821,0c-1.24459.72334-1.23784,1.88817.01465,2.61138l60.85825,35.13641Zm-9.31061,5.41082a4.95372,4.95372,0,0,0,4.5082,0c1.23657-.71862,1.23032-1.88332-.02268-2.60679l-60.85812-35.13642a4.95293,4.95293,0,0,0-4.50031-.00471c-1.24472.72334-1.238,1.88829.01466,2.61138l60.85825,35.13654Z"/><path class="cls-44" d="M422.215,447.57017c1.253.72334,1.25122,1.89275.01466,2.61138a4.96846,4.96846,0,0,1-4.50834,0L356.86307,415.045c-1.25262-.72308-1.25122-1.89276-.01465-2.61138a4.96921,4.96921,0,0,1,4.50833,0Z"/><path class="cls-44" d="M412.90426,452.98086c1.253.72346,1.25122,1.89288.01478,2.61137a4.954,4.954,0,0,1-4.50834,0l-60.85825-35.13641c-1.25249-.72321-1.25937-1.88817-.01465-2.61138a4.96936,4.96936,0,0,1,4.50821-.00013Z"/><path class="cls-44" d="M472.32284,459.9929a1.3766,1.3766,0,0,1,.00676,2.60679l-4.48553,2.60666a4.95175,4.95175,0,0,1-4.50031.00472L366.62639,409.3712c-1.25262-.72309-1.25937-1.888-.01478-2.61138l4.48566-2.60666a4.95454,4.95454,0,0,1,4.50821,0Z"/><polygon class="cls-49" points="411.388 490.353 411.344 505.933 304.652 444.335 304.697 428.755 411.388 490.353"/><polygon class="cls-8" points="539.761 485.632 539.717 501.212 471.665 540.76 471.709 525.18 539.761 485.632"/><polygon class="cls-46" points="476.069 527.697 476.025 543.277 411.344 505.933 411.388 490.353 476.069 527.697"/><polygon class="cls-49" points="471.709 525.18 471.665 540.76 411.344 505.933 411.388 490.353 471.709 525.18"/><polygon class="cls-46" points="544.121 488.15 476.069 527.697 411.388 490.353 471.709 525.18 539.761 485.632 544.121 488.15"/><polygon class="cls-47" points="544.121 488.15 544.077 503.73 476.025 543.277 476.069 527.697 544.121 488.15"/></g><path class="cls-8" d="M580.82434,351.42681c-8.28161,0-16.57137-1.82535-22.89614-5.47669-6.391-3.69-9.91482-8.66959-9.92259-14.02257-.00739-5.31933,3.46378-10.26852,9.77453-13.936,12.56977-7.30395,33.087-7.30459,45.737-.00191h0c6.385,3.68689,9.90552,8.66653,9.91291,14.0232.00777,5.32239-3.46035,10.27158-9.76485,13.9354C597.3803,349.60018,589.10608,351.42681,580.82434,351.42681Zm-.20463-36.40293c-7.81909,0-15.62608,1.72329-21.55917,5.17128-5.49173,3.19162-8.51287,7.35683-8.50663,11.7287.00625,4.40538,3.07772,8.603,8.64844,11.81879,11.94429,6.89711,31.316,6.89775,43.18244.00191,5.48586-3.18781,8.50319-7.35314,8.49694-11.72807-.00624-4.40908-3.074-8.60677-8.63875-11.81942C596.27039,316.74845,588.43919,315.02388,580.61971,315.02388Z"/><g class="cls-50"><path class="cls-8" d="M598.0993,321.87118c-9.66508-5.58016-25.27651-5.57429-34.869.00012-9.6024,5.58028-9.55143,14.61734.11366,20.19749,9.6554,5.57442,25.26657,5.58015,34.869-.00025,9.59246-5.57442,9.54162-14.62282-.11366-20.19736Z"/></g><g class="cls-50"><path class="cls-8" d="M590.03315,326.55777c-5.17981-2.99057-13.54653-2.98751-18.68736,0-5.14617,2.99069-5.11891,7.83387.06091,10.82443,5.17459,2.98764,13.54118,2.99057,18.68736,0,5.14095-2.98763,5.11368-7.83693-.06091-10.82443Z"/></g><polygon class="cls-51" points="577.112 188.468 577.112 197.453 577.112 208.532 577.112 219.611 577.112 230.689 577.112 241.768 577.112 252.847 577.112 263.925 577.112 275.004 577.112 286.083 577.112 297.162 577.112 308.241 577.112 319.319 577.112 330.398 577.112 331.97 582.626 331.97 582.626 330.354 582.626 319.275 582.626 308.197 582.626 297.118 582.626 286.039 582.626 274.96 582.626 263.881 582.626 252.803 582.626 241.724 582.626 230.645 582.626 219.566 582.626 208.488 582.626 197.409 582.626 188.468 577.112 188.468"/><polygon class="cls-52" points="579.869 188.468 579.869 197.453 579.869 208.532 579.869 219.611 579.869 230.689 579.869 241.768 579.869 252.847 579.869 263.925 579.869 275.004 579.869 286.083 579.869 297.162 579.869 308.241 579.869 319.319 579.869 330.398 579.869 331.97 585.382 331.97 585.382 330.354 585.382 319.275 585.382 308.197 585.382 297.118 585.382 286.039 585.382 274.96 585.382 263.881 585.382 252.803 585.382 241.724 585.382 230.645 585.382 219.566 585.382 208.488 585.382 197.409 585.382 188.468 579.869 188.468"/><g class="cls-50"><path class="cls-8" d="M580.80166,240.0168c-6.4295.00064-12.86588-1.41724-17.77621-4.25236-4.89568-2.82632-7.59485-6.62088-7.60071-10.684-.006-4.03716,2.65253-7.80737,7.48565-10.61573,9.75772-5.67139,25.68616-5.67139,35.50733-.00115,4.891,2.8239,7.5877,6.61833,7.59356,10.68466.00561,4.03958-2.65,7.80979-7.47813,10.6151C593.65391,238.59892,587.23129,240.0168,580.80166,240.0168Zm-.1608-28.5502c-6.19811,0-12.38718,1.36628-17.09033,4.09934-4.42348,2.57073-6.8566,5.94889-6.85163,9.51257.005,3.58979,2.47822,6.99293,6.96362,9.58226,9.46849,5.46739,24.82419,5.468,34.23037.00128,4.41851-2.56819,6.84921-5.94584,6.84424-9.51194-.00522-3.593-2.47581-6.99611-6.95649-9.5829h0C593.0464,212.83352,586.83923,211.4666,580.64086,211.4666Z"/></g><g class="cls-50"><path class="cls-8" d="M580.76305,249.71361A19.59073,19.59073,0,0,1,571.178,247.421c-2.64-1.52363-4.09551-3.56992-4.0987-5.76108-.00306-2.17689,1.43062-4.20942,4.03652-5.72375,5.26148-3.05848,13.85055-3.05911,19.14618-.00064,2.63737,1.52236,4.09131,3.568,4.09436,5.76045.00306,2.1788-1.4287,4.21133-4.03205,5.72438A19.45184,19.45184,0,0,1,580.76305,249.71361Zm-.08638-15.39444a18.74807,18.74807,0,0,0-9.21557,2.21053c-2.38534,1.38615-3.69733,3.20781-3.69453,5.129.00268,1.93608,1.33633,3.77086,3.75493,5.16759,5.10527,2.94762,13.38574,2.94711,18.4575.00063,2.38241-1.385,3.69326-3.20653,3.69046-5.12961-.00306-1.93735-1.33506-3.77213-3.75085-5.16694h0A18.89853,18.89853,0,0,0,580.67667,234.31917Z"/></g><g class="cls-31"><polygon class="cls-2" points="494.306 395.246 429.625 357.902 361.573 397.449 532.946 496.391 593.267 531.218 661.319 491.67 494.306 395.246"/></g><g class="cls-16"><path class="cls-9" d="M445.534,311.337c-9.66432-5.57977-25.33819-5.57493-34.93969.005q.022-7.79.04408-15.5797c9.60164-5.57977,25.27537-5.58461,34.93969-.005Q445.55615,303.54747,445.534,311.337Z"/><path class="cls-9" d="M410.59435,311.342c-4.76979,2.77179-7.15756,6.40606-7.168,10.04568l.04408-15.57958c.01058-3.63974,2.39834-7.27388,7.168-10.0458Q410.61646,303.55242,410.59435,311.342Z"/><path class="cls-9" d="M452.81888,321.52919c.0107-3.68816-2.41822-7.38244-7.28484-10.1922q.00516-1.87453.01057-3.74907l.01147-4.041q.01108-3.8949.022-7.78966c4.86676,2.80976,7.29567,6.50417,7.285,10.19233C452.84984,310.62359,452.83213,316.85535,452.81888,321.52919Z"/><path class="cls-4" d="M449.047,305.93892l-.04421,15.57957c.00879-3.11861-2.04591-6.24207-6.16027-8.61748-8.16719-4.71538-21.41673-4.71525-29.5392.005-4.03116,2.34266-6.049,5.41553-6.0577,8.49312l.04409-15.57957c.00879-3.07759,2.02666-6.15046,6.05783-8.49312,8.12247-4.72036,21.372-4.72036,29.53919-.005C447.001,299.69684,449.0558,302.8203,449.047,305.93892Z"/><path class="cls-9" d="M449.00279,321.51824c-.00854,3.07886-2.02845,6.153-6.06369,8.498q.022-7.79.04421-15.57958c4.03524-2.34508,6.055-5.41922,6.06369-8.49809C449.03375,310.61251,449.01591,316.84426,449.00279,321.51824Z"/><path class="cls-9" d="M413.39927,330.01161c-4.10978-2.37285-6.16244-5.49491-6.15365-8.61225l.04409-15.57958c-.00867,3.11734,2.044,6.2394,6.15377,8.61226Q413.42151,322.222,413.39927,330.01161Z"/><path class="cls-9" d="M442.9391,330.0162c-8.11444,4.71564-21.364,4.71577-29.53983-.00459q.022-7.79.04421-15.57957c8.17586,4.72022,21.42526,4.72022,29.53983.00458Q442.96134,322.2266,442.9391,330.0162Z"/><path class="cls-4" d="M452.86309,305.94911l-.04421,15.5797c-.01032,3.6423-2.4,7.27885-7.17093,10.05141-9.60164,5.57977-25.26722,5.5799-34.93995-.00459-4.86331-2.80785-7.2921-6.50047-7.28165-10.18748l.04408-15.57958c-.01045,3.687,2.41847,7.37964,7.28166,10.18749,9.67273,5.58448,25.33844,5.58436,34.94007.00446C450.4631,313.228,452.85277,309.59153,452.86309,305.94911Z"/><path class="cls-9" d="M429.85036,267.4358l64.6816,37.344L426.48023,344.3271l-64.68173-37.344Zm-19.09827,48.56026c9.67273,5.58448,25.33844,5.58436,34.94007.00446,9.60163-5.57977,9.55869-14.65862-.114-20.24323-9.66432-5.57964-25.33805-5.5748-34.93969.005-9.60163,5.5799-9.55066,14.654.11366,20.2338Z"/><path class="cls-9" d="M442.88673,297.32144c8.17586,4.72035,8.219,12.39483.09658,17.11518-8.11457,4.71564-21.364,4.71564-29.53983-.00458-8.16732-4.71539-8.21051-12.39-.09594-17.10563C421.47,292.60605,434.71954,292.60605,442.88673,297.32144Z"/><path class="cls-4" d="M445.57812,295.75729c9.67273,5.58461,9.71567,14.66346.114,20.24323-9.60163,5.5799-25.26734,5.58-34.94007-.00446-9.66432-5.57977-9.71529-14.6539-.11366-20.2338C420.24007,290.18249,435.9138,290.17765,445.57812,295.75729ZM413.44348,314.432c8.17586,4.72022,21.42526,4.72022,29.53983.00458,8.12247-4.72035,8.07928-12.39483-.09658-17.11518-8.16719-4.71539-21.41672-4.71539-29.53919.005-8.11457,4.71564-8.07138,12.39024.09594,17.10563Z"/><polygon class="cls-9" points="494.532 304.78 494.488 320.359 426.436 359.907 426.48 344.327 494.532 304.78"/><polygon class="cls-10" points="426.48 344.327 426.436 359.907 361.754 322.563 361.799 306.983 426.48 344.327"/></g><g class="cls-16"><path class="cls-8" d="M497.345,335.30444a4.95454,4.95454,0,0,0-4.50821.00013c.01287-4.58682.039-9.17326.039-13.76009l.0051-1.81961a4.95439,4.95439,0,0,1,4.50833,0q-.01948,6.88-.039,13.75957C497.34861,334.03042,497.34657,334.75847,497.345,335.30444Z"/><polygon class="cls-8" points="492.881 319.725 492.837 335.305 488.351 337.911 488.395 322.332 492.881 319.725"/><path class="cls-8" d="M487.42181,339.20794l.04421-15.57958a1.58539,1.58539,0,0,1,.92937-1.2967l-.04421,15.57957A1.58554,1.58554,0,0,0,487.42181,339.20794Z"/><path class="cls-44" d="M487.42181,339.20806l.04421-15.5797a1.59748,1.59748,0,0,0,.94377,1.3148l-.04409,15.57957A1.59705,1.59705,0,0,1,487.42181,339.20806Z"/><polygon class="cls-8" points="594.107 375.565 594.063 391.144 497.345 335.304 497.389 319.725 594.107 375.565"/><polygon class="cls-44" points="585.127 380.783 585.083 396.362 488.366 340.523 488.41 324.943 585.127 380.783"/><polygon class="cls-8" points="543.999 363.142 543.955 378.722 483.096 343.585 483.14 328.005 543.999 363.142"/><polygon class="cls-44" points="539.505 365.753 539.461 381.333 478.603 346.197 478.647 330.617 539.505 365.753"/><path class="cls-8" d="M478.58785,343.585a1.5843,1.5843,0,0,0-.92618,1.29722l.04421-15.57958a1.5839,1.5839,0,0,1,.92619-1.29721q-.022,7.78882-.04409,15.57741.022-7.789.04421-15.57754a4.95493,4.95493,0,0,1,4.50821,0q-.01931,6.88005-.039,13.75958l-.00509,1.82012A4.95474,4.95474,0,0,0,478.58785,343.585Z"/><path class="cls-44" d="M477.66167,344.88225l.04409-15.57958a1.59444,1.59444,0,0,0,.94083,1.31416l-.04408,15.57971A1.594,1.594,0,0,1,477.66167,344.88225Z"/><polygon class="cls-8" points="534.688 368.553 534.644 384.132 473.785 348.996 473.83 333.416 534.688 368.553"/><polygon class="cls-44" points="530.194 371.164 530.15 386.744 469.292 351.607 469.336 336.028 530.194 371.164"/><path class="cls-8" d="M468.35106,350.29307l.04408-15.57971a1.5841,1.5841,0,0,1,.92618-1.29708,4.96883,4.96883,0,0,1,4.50834-.00013l-.04422,15.5797a4.96881,4.96881,0,0,0-4.50833,0A1.58385,1.58385,0,0,0,468.35106,350.29307Z"/><path class="cls-44" d="M468.35093,350.29307l.04421-15.57971a1.594,1.594,0,0,0,.94084,1.31429l-.04422,15.57958A1.59431,1.59431,0,0,1,468.35093,350.29307Z"/><polygon class="cls-8" points="525.377 373.964 525.333 389.543 464.475 354.407 464.519 338.827 525.377 373.964"/><polygon class="cls-44" points="520.883 376.575 520.839 392.155 459.981 357.018 460.025 341.438 520.883 376.575"/><path class="cls-8" d="M459.96662,354.40654a1.58536,1.58536,0,0,0-.92924,1.29671l.04409-15.57958a1.58547,1.58547,0,0,1,.92924-1.29671l-.044,15.57907q.022-7.78978.04408-15.57907a4.96859,4.96859,0,0,1,4.50821,0l-.04421,15.57958A4.969,4.969,0,0,0,459.96662,354.40654Z"/><path class="cls-44" d="M459.03725,355.70337l.04422-15.5797a1.59731,1.59731,0,0,0,.94376,1.3148l-.04408,15.57957A1.59731,1.59731,0,0,1,459.03725,355.70337Z"/><path class="cls-8" d="M543.95457,378.72158q.02255-7.79018.04421-15.5797a1.59745,1.59745,0,0,1,.94376,1.31479l-.04408,15.57971A1.59708,1.59708,0,0,0,543.95457,378.72158Z"/><path class="cls-44" d="M544.94242,364.45667l-.04422,15.57958a1.58494,1.58494,0,0,1-.92924,1.29671,4.96857,4.96857,0,0,1-4.5082,0l.04408-15.57958a4.96883,4.96883,0,0,0,4.50834,0A1.58523,1.58523,0,0,0,544.94242,364.45667Z"/><path class="cls-44" d="M543.99865,363.14188c1.25275.72333,1.25912,1.88816.01453,2.6115a4.96883,4.96883,0,0,1-4.50834,0l-60.85825-35.13655c-1.25275-.72321-1.25122-1.89275-.01465-2.61137a4.95506,4.95506,0,0,1,4.50846,0Z"/><path class="cls-8" d="M535.58466,385.44669a1.594,1.594,0,0,0-.94084-1.31429q.01931-6.88025.039-13.76009l.0051-1.81949a1.59387,1.59387,0,0,1,.941,1.31429C535.61562,374.541,535.59791,380.77284,535.58466,385.44669Z"/><path class="cls-44" d="M535.62874,369.867l-.04421,15.57958a1.584,1.584,0,0,1-.92618,1.29721,4.96883,4.96883,0,0,1-4.50834,0l.04422-15.57957a4.96961,4.96961,0,0,0,4.50833,0A1.5842,1.5842,0,0,0,535.62874,369.867Z"/><path class="cls-44" d="M534.68791,368.55269c1.25274.72334,1.25122,1.89276.01465,2.61151a4.96961,4.96961,0,0,1-4.50833,0L469.336,336.02765c-1.25275-.72334-1.25122-1.89275-.01466-2.61137a4.9692,4.9692,0,0,1,4.50834-.00013Z"/><path class="cls-8" d="M525.33321,389.54309q.02235-7.79.04408-15.57958a1.594,1.594,0,0,1,.94084,1.31429l-.04409,15.5797A1.594,1.594,0,0,0,525.33321,389.54309Z"/><path class="cls-8" d="M594.06253,391.14431q.02276-7.79.04409-15.57957a1.59586,1.59586,0,0,1,.94083,1.31531l-.04408,15.5797A1.59675,1.59675,0,0,0,594.06253,391.14431Z"/><path class="cls-44" d="M526.31813,375.2778l-.04422,15.57957a1.58385,1.58385,0,0,1-.92618,1.29709,4.95439,4.95439,0,0,1-4.50833.00013l.04408-15.57958a4.95509,4.95509,0,0,0,4.50846-.00012A1.58433,1.58433,0,0,0,526.31813,375.2778Z"/><path class="cls-44" d="M595.04733,376.88005l-.04422,15.57957a1.58139,1.58139,0,0,1-.92605,1.29607l.04409-15.57958A1.58193,1.58193,0,0,0,595.04733,376.88005Z"/><polygon class="cls-44" points="594.121 378.176 594.077 393.756 589.591 396.362 589.636 380.783 594.121 378.176"/><path class="cls-44" d="M589.63562,380.78278l-.04422,15.5797a4.96884,4.96884,0,0,1-4.50833,0l.04409-15.57958A4.96871,4.96871,0,0,0,589.63562,380.78278Z"/><path class="cls-8" d="M494.53209,304.77982l167.02015,96.429-68.05173,39.5474-60.32935-34.83113-106.6908-61.598Zm95.10366,76.003,4.48565-2.60667c1.24459-.72333,1.22981-1.89288-.01478-2.61137l-96.71737-55.83987a4.95439,4.95439,0,0,0-4.50833,0l-4.48553,2.60679c-1.24485.72333-1.23822,1.88816.01452,2.61137l96.7175,55.83987a4.96846,4.96846,0,0,0,4.50834-.00012ZM539.505,365.75338a4.96881,4.96881,0,0,0,4.50833,0c1.24472-.72334,1.23823-1.88817-.01452-2.6115L483.1404,328.00533a4.95479,4.95479,0,0,0-4.50833.00013c-1.23657.71862-1.23823,1.88816.01452,2.61137L539.505,365.75338Zm-9.31062,5.41082a4.969,4.969,0,0,0,4.50821,0c1.23669-.71875,1.23822-1.88817-.01453-2.61151l-60.85837-35.13654a4.96883,4.96883,0,0,0-4.50834.00013c-1.23644.71849-1.23809,1.888.01466,2.61137l60.85837,35.13655Zm-9.31074,5.41081a4.95509,4.95509,0,0,0,4.50846-.00012c1.23657-.71863,1.2381-1.888-.01478-2.61138L464.519,338.827a4.96884,4.96884,0,0,0-4.50833,0c-1.2446.72334-1.23823,1.88817.01465,2.61138L520.88361,376.575Z"/><path class="cls-44" d="M525.37729,373.96351c1.25275.72334,1.25122,1.89275.01465,2.61138a4.95509,4.95509,0,0,1-4.50846.00012l-60.85825-35.13654c-1.25275-.72334-1.25924-1.88817-.01452-2.61151a4.96884,4.96884,0,0,1,4.50833,0Z"/><path class="cls-44" d="M594.10649,375.56474c1.24459.71849,1.25937,1.888.01466,2.61137l-4.48553,2.60667a4.96871,4.96871,0,0,1-4.50846.00012l-96.71737-55.83974c-1.25275-.72334-1.25925-1.88817-.01453-2.6115l4.48553-2.60667a4.95482,4.95482,0,0,1,4.50833-.00012Z"/><polygon class="cls-53" points="533.171 405.925 533.127 421.505 426.436 359.907 426.48 344.327 533.171 405.925"/><polygon class="cls-8" points="661.552 401.209 661.508 416.789 593.456 456.336 593.501 440.756 661.552 401.209"/><polygon class="cls-9" points="597.853 443.269 597.809 458.849 533.127 421.505 533.171 405.925 597.853 443.269"/><polygon class="cls-53" points="593.501 440.756 593.456 456.336 533.127 421.505 533.171 405.925 593.501 440.756"/><polygon class="cls-9" points="665.904 403.722 597.853 443.269 533.171 405.925 593.5 440.756 661.552 401.209 665.904 403.722"/><polygon class="cls-42" points="665.904 403.722 665.86 419.301 597.809 458.849 597.853 443.269 665.904 403.722"/></g><path class="cls-8" d="M438.61921,36.41305a11.06481,11.06481,0,1,1,11.06487-11.06487A11.07729,11.07729,0,0,1,438.61921,36.41305Zm0-20.85546a9.79066,9.79066,0,1,0,9.79072,9.79059A9.80183,9.80183,0,0,0,438.61921,15.55759Z"/><path class="cls-8" d="M554.36172,89.50636l-13.7662-11.75865,11.75826-13.76684L566.12,75.73952Zm-11.97-11.90046,11.82885,10.10365,10.10327-11.82822L552.49508,65.77768Z"/><path class="cls-8" d="M551.84832,11.85325H540.404L546.1261,1.9425Zm-9.2376-1.27416h7.0309L546.1261,4.49081Z"/><path class="cls-8" d="M345.93173,152.69937a4.15992,4.15992,0,1,1,4.1596-4.1596A4.16433,4.16433,0,0,1,345.93173,152.69937Zm0-8.04985a3.88993,3.88993,0,1,0,3.88961,3.89025A3.8945,3.8945,0,0,0,345.93173,144.64952Z"/><path class="cls-8" d="M271.63206,188.53249l2.98127-6.64636,4.26548,5.90481ZM274.7782,183.5l-1.83159,4.08315,4.45214-.45538Z"/><path class="cls-8" d="M806.77622,71.31044l2.98126-6.64636,4.26549,5.9048Zm3.14614-5.03252-1.8316,4.08315,4.45215-.45539Z"/><path class="cls-8" d="M496.241,204.68276l-12.09859-10.33325,10.33389-12.09885,12.09859,10.33389Zm-10.51953-10.45761,10.39518,8.87855,8.87919-10.39479-10.395-8.87919Z"/><path class="cls-8" d="M520.7037,135.66382l-5.65584-1.34,1.33977-5.6566,5.65584,1.34015Zm-5.16376-1.64366,4.86013,1.15094,1.15132-4.86013-4.86013-1.15107Z"/></g></g></svg>