<svg xmlns="http://www.w3.org/2000/svg" xmlns:xlink="http://www.w3.org/1999/xlink" width="553.156" height="306.989" viewBox="0 0 553.156 306.989"><defs><linearGradient id="a" x1="0.404" y1="0.701" x2="0.787" y2="-0.145" gradientUnits="objectBoundingBox"><stop offset="0" stop-color="#fff"/><stop offset="1" stop-color="#d8dcdf"/></linearGradient><linearGradient id="b" x1="0.428" y1="0.678" x2="0.813" y2="-0.172" xlink:href="#a"/><linearGradient id="c" x1="0.38" y1="0.745" x2="0.822" y2="-0.191" xlink:href="#a"/><linearGradient id="d" x1="0.496" y1="0.794" x2="0.504" y2="-0.06" gradientUnits="objectBoundingBox"><stop offset="0" stop-color="#fff"/><stop offset="0.307" stop-color="#f8f9f9"/><stop offset="0.731" stop-color="#e6e9eb"/><stop offset="1" stop-color="#d8dcdf"/></linearGradient><linearGradient id="e" x1="0.488" y1="1.013" x2="0.883" y2="-0.153" gradientUnits="objectBoundingBox"><stop offset="0" stop-color="#fff"/><stop offset="0.952" stop-color="#d8dcdf"/></linearGradient><linearGradient id="f" x1="0.615" y1="1.106" x2="0.529" y2="0.348" xlink:href="#a"/><linearGradient id="g" x1="0.865" y1="0.5" x2="0.348" y2="0.5" xlink:href="#a"/><linearGradient id="h" x1="0.934" y1="0.5" x2="0.32" y2="0.5" xlink:href="#a"/><linearGradient id="i" x1="-0.197" y1="0.5" x2="0.209" y2="0.5" xlink:href="#a"/><linearGradient id="j" x1="0.5" y1="0.884" x2="0.5" y2="0.313" gradientUnits="objectBoundingBox"><stop offset="0" stop-color="#fff"/><stop offset="1" stop-color="#c4c8cd"/></linearGradient><linearGradient id="l" x1="0.5" y1="0.617" x2="0.5" y2="0.045" xlink:href="#j"/><linearGradient id="n" x1="0.993" y1="0.533" x2="0.698" y2="0.297" xlink:href="#a"/><linearGradient id="o" x1="0.297" y1="0.77" x2="0.839" y2="0.051" xlink:href="#a"/><linearGradient id="p" x1="0.312" y1="0.815" x2="0.85" y2="-0.01" xlink:href="#a"/><linearGradient id="q" y1="0.5" x2="1" y2="0.5" gradientUnits="objectBoundingBox"><stop offset="0" stop-color="#fff"/><stop offset="1" stop-color="#697182"/></linearGradient><linearGradient id="r" y1="0.5" x2="1" y2="0.5" gradientUnits="objectBoundingBox"><stop offset="0" stop-color="#fff"/><stop offset="1"/></linearGradient><linearGradient id="u" x1="0.5" y1="0.119" x2="0.5" y2="0.938" xlink:href="#r"/><linearGradient id="v" x1="0" y1="0.5" x2="1" y2="0.5" xlink:href="#j"/><linearGradient id="w" x1="0.5" y1="-0.01" x2="0.5" y2="0.887" xlink:href="#a"/><linearGradient id="x" x1="0.992" y1="0.855" x2="0.805" y2="0.711" gradientUnits="objectBoundingBox"><stop offset="0" stop-color="#fff"/><stop offset="0.994" stop-color="#d8dcdf"/></linearGradient><linearGradient id="y" x1="0.533" y1="0.437" x2="0.803" y2="-0.155" xlink:href="#a"/><linearGradient id="z" x1="0.532" y1="0.376" x2="0.788" y2="-0.279" xlink:href="#a"/><linearGradient id="aa" x1="0.532" y1="0.418" x2="0.794" y2="-0.322" xlink:href="#a"/><linearGradient id="ab" y1="0.5" x2="1" y2="0.5" gradientUnits="objectBoundingBox"><stop offset="0" stop-color="#fff"/><stop offset="1" stop-color="#0057a8"/></linearGradient><linearGradient id="ac" x1="0.402" y1="0.85" x2="0.545" y2="0.343" gradientUnits="objectBoundingBox"><stop offset="0" stop-color="#fff"/><stop offset="1" stop-color="#46495f"/></linearGradient><linearGradient id="af" x1="0.251" y1="1.252" x2="0.453" y2="0.519" xlink:href="#ac"/><linearGradient id="ag" x1="0.768" y1="2.346" x2="0.637" y2="1.553" xlink:href="#ac"/><linearGradient id="ah" x1="0.867" y1="0.358" x2="0.519" y2="0.491" gradientUnits="objectBoundingBox"><stop offset="0" stop-color="#fff"/><stop offset="1" stop-color="#ba654b"/></linearGradient><linearGradient id="ai" x1="0.616" y1="0.175" x2="0.344" y2="0.825" xlink:href="#ab"/><linearGradient id="aj" x1="0.955" y1="0.653" x2="0.312" y2="0.47" xlink:href="#a"/><linearGradient id="ak" x1="0.791" y1="-0.002" x2="0.399" y2="0.684" xlink:href="#a"/><linearGradient id="al" x1="0.425" y1="0.908" x2="0.502" y2="0.261" xlink:href="#a"/><linearGradient id="am" x1="0.896" y1="0.275" x2="0.282" y2="0.591" xlink:href="#ah"/><linearGradient id="an" x1="0.5" y1="0.546" x2="0.508" y2="0.118" xlink:href="#a"/></defs><g transform="translate(-182.335 -118.694)"><path d="M350.844,327.362l49.813-4.6V129.79l-49.812-7.623Z" fill="url(#a)"/><path d="M671.239,322.761l49.812,4.6V122.168l-49.812,7.623Z" fill="url(#b)"/><path d="M409.707,321.706l44.129-3.684V138.874l-44.129-6.75Z" fill="url(#c)"/><path d="M182.335,379.846l455.389,33.687L678.81,351.58,489.2,339.185Z" fill="url(#d)" style="mix-blend-mode:multiply;isolation:isolate"/><path d="M623.323,351.283l-59.981,46.7,89.425,2.22L650,353.91Z" fill="url(#e)" style="mix-blend-mode:multiply;isolation:isolate"/><path d="M643.456,343.367c-11.812,0-21.388,3.488-21.388,7.792s9.576,7.793,21.388,7.793,21.388-3.49,21.388-7.793S655.268,343.367,643.456,343.367Z" fill="#c4c8cd"/><path d="M622.1,351.332h0c0,1.049,9.563,1.9,21.36,1.9s21.359-.85,21.359-1.9h0l5.282-33.418H616.815Z" fill="#c4c8cd"/><path d="M619.589,335.465c.239.2,4.349,5.353,12.224,1.119,4.8-2.578,10.291,2.547,15.7,3.287,5.12.7,9.924-2.451,13.849.858.665.562,2.728,2.613,4.431,4.417l4.3-27.232H616.815Z" fill="url(#f)" style="mix-blend-mode:multiply;isolation:isolate"/><path d="M617.71,322.488c0-2.187,11.531-3.961,25.748-3.961S669.2,320.3,669.2,322.488l5.005-9.78h-61.5Z" fill="url(#g)"/><path d="M643.456,315.757c-14.282,0-25.859,2.914-25.859,6.508s11.577,6.508,25.859,6.508,25.859-2.914,25.859-6.508S657.738,315.757,643.456,315.757Z" fill="url(#h)"/><path d="M643.456,305.4c-16.981,0-30.748,3.27-30.748,7.3s13.767,7.3,30.748,7.3,30.747-3.27,30.747-7.3S660.437,305.4,643.456,305.4Z" fill="url(#i)"/><path d="M643.456,306.428c-15.885,0-28.763,2.812-28.763,6.279s12.878,6.279,28.763,6.279,28.763-2.812,28.763-6.279S659.341,306.428,643.456,306.428Z" fill="#697182"/><path d="M631.772,262.315c2.642,10.937,4.093,18.863,6.376,49.135l2.111-1.037s-5.613-43.636-8.1-48.415S631.732,262.145,631.772,262.315Z" fill="#3c4456"/><path d="M612.722,228.484s19.684,17.355.921,6.769c0,0,1.522,20.448,18.508,27.229,0,0,11.07-34.927-3.97-72.406C628.181,190.076,604.839,200.274,612.722,228.484Z" fill="#0078ef"/><path d="M639.736,232.691c5.837-28.7-10.983-43.093-10.983-43.093-12.311,38.462,3.4,72.884,3.4,72.884,9.5-5.717,7.537-24.168,7.537-24.168C621.733,250.22,639.736,232.691,639.736,232.691Z" fill="#3c4456"/><path d="M623.78,269.1c5.6-11.049-4.451-21.565-5.113-13.694s-11.677,9.679-6.246,5.278,2.53-8.076,2.53-8.076c-15.408-9.262-38.565.587-38.565.587s26.772-.417,41.631,18.64c10.049,12.891,17.418,30.087,21.139,39.874a24.367,24.367,0,0,1,2.853.871C635.227,291.106,618.6,279.325,623.78,269.1Z" fill="#3c4456"/><path d="M640.125,302.068c-.749,2.672-2.368,5.769-3.6,9.153.423.056.847.1,1.264.18,1.47-4,3.5-9.686,3.978-11.849.771-3.484,29.589-5.9-7.93-44.341C636.685,271.651,646.3,280.031,640.125,302.068Z" fill="#3c4456"/><path d="M623.084,294.846s5.31-6.561-1.687-19.579c0,0-2.226,15.931-2.01-2.124,0,0-3.294-5.468-7.6-6.145s1.934,9.6-1.478,9.1-.2-5.774-1.635-10.563-20.246.217-20.246.217,7.955,18.257,27.741,26.406a46.647,46.647,0,0,1,21.922,19.306c.58.115,1.151.254,1.717.411C636.325,306.342,630.669,299.068,623.084,294.846Z" fill="#0078ef"/><path d="M623.084,294.846s-.19-14.151-13.684-17.215a41.356,41.356,0,0,1-20.97-11.884s7.955,18.257,27.741,26.406a46.647,46.647,0,0,1,21.922,19.306q.928.184,1.834.438C636.58,306.569,631.05,299.537,623.084,294.846Z" fill="#3c4456"/><path d="M671.939,222.883a13.453,13.453,0,0,1-3.159-7.9c-2.46,3.359-9.336,8.781-9.336,8.781,11.594,29.692-3.382,4.216-3.382,4.216-16.164,21.994-4.3,30.256-6.967,48.3-2.192,14.826-10.8,29.907-13.8,34.813a24.243,24.243,0,0,1,2.966.415c2.956-6.915,10.584-25.59,11.561-36.351,1.215-13.384,6.215-6.114,14.432-7.667s8.031-8.607,8.031-8.607c-4.538-1.65-10.417.879-10.417.879s.1-2.667,3.571-2.317,4.167-2.369,4.167-2.369.54-.574,5.773-1.643,7.509-12.557,7.509-12.557c-5.4-2.572-13.041,1.6-13.041,1.6,2.864-3.234,11.121-7.9,11.121-7.9,15.67-10.552,7.1-23.552,7.1-23.552C670.128,208.574,671.939,222.883,671.939,222.883Z" fill="#0078ef"/><path d="M671.939,222.883a13.462,13.462,0,0,1-3.161-7.9c-2.459,3.357-9.336,8.778-9.336,8.778,11.6,29.692-3.38,4.217-3.38,4.217a54.124,54.124,0,0,0-5.854,9.761v.008c-4.736,10.53-2.364,17.726-1.211,26.188a42.461,42.461,0,0,1,.1,12.342c-2.189,14.824-10.8,29.906-13.8,34.811a24.463,24.463,0,0,1,2.964.415c2.956-6.916,10.585-25.592,11.562-36.35,1.215-13.387,6.213-6.117,14.433-7.668s-9.7-4.657-9.7-4.657c-4.541-1.654,19.213-30.3,19.213-30.3,15.668-10.551,14.292-21.506,14.292-21.506C670.129,208.574,671.939,222.883,671.939,222.883Z" fill="#3c4456"/><path d="M650.208,237.743c-4.736,10.53-2.364,17.726-1.211,26.188a14.121,14.121,0,0,0,3.571-10.49C652.022,247.076,648.274,247.077,650.208,237.743Z" fill="#0078ef"/><path d="M666.455,257.628c-.457,4.979,3.738,9.508.495,10.678s.828-10.139-3.255-8.62-6.225,7.531-6.225,7.531c3.8,17.653-1.549,2.481-1.549,2.481-4.272,14.148,2.235,19.524,2.235,19.524-8.245,7.057-12.586,18.186-14.425,24.108.466.22.919.461,1.369.71,1.507-6.432,6.122-20,19.3-28.831,17.774-11.916,21.944-31.39,21.944-31.39S666.913,252.65,666.455,257.628Z" fill="#0078ef"/><path d="M668.148,269.632c-12.615,5.683-9.992,19.59-9.992,19.59-8.628,7.755-12.766,18.364-14.484,24.081.486.229.96.477,1.428.737,1.507-6.432,6.122-20,19.3-28.831,17.774-11.916,21.944-31.39,21.944-31.39A41.354,41.354,0,0,1,668.148,269.632Z" fill="#3c4456"/><path d="M672.653,281.07s-2.434,1.727.1,5.4-3.883.583-2.872-4.352-7.029-.308-5.592,7.459c1.363,7.367-11.594,11.616-19.575,24.25.43.227.857.456,1.27.709,3.554-4.842,11.912-15.479,21.34-22.248,12.519-8.989,28.825-3.919,28.825-3.919S683.747,278.174,672.653,281.07Z" fill="#3c4456"/><path d="M403.5,366.543l119.766-25V227.014L403.5,232.622Z" fill="url(#j)"/><path d="M661.635,425.682l34.511-52.045V219.519l-34.511,32.655Z" fill="url(#j)"/><path d="M393.869,362.274l9.632,4.269V232.622l-9.632-1.531Z" fill="url(#l)"/><path d="M649.175,416.274l12.46,5.522V248.546l-12.46-1.98Z" fill="url(#l)"/><path d="M483.963,217.14l-110.3,8,361.826,23.5-2.554-30.924Z" fill="url(#n)"/><path d="M694.2,236.424a5.673,5.673,0,0,0,3.442-.671c1.139-.774,16.724-9.477,16.724-9.477l-28.534-3.571S682.616,233.831,694.2,236.424Z" fill="#0053a8"/><path d="M711.615,222.139s-24.888,7.09-19.3,13.106a3.073,3.073,0,0,0,3.63.272c1.141-.775,16.6-9.291,16.6-9.291S710.477,225.539,711.615,222.139Z" fill="url(#o)"/><path d="M654.484,224.584s-4.475,3.275.435,6.422l39.394,5.435s-5.507-2.535,1.234-7.092l17.862-7.779-37.367-4.418Z" fill="#49a3fe"/><path d="M690.571,228.922a5.465,5.465,0,0,0,2.9-.5c1.057-.576,15.757-7.308,15.757-7.308l-23.681-3S681.437,226.981,690.571,228.922Z" fill="#697182"/><path d="M689.215,228.047a2.554,2.554,0,0,0,2.917.2c1.053-.579,15.576-7.177,15.576-7.177s-1.588-.559.187-3.361C707.9,217.713,685.425,223.43,689.215,228.047Z" fill="url(#p)"/><path d="M658.157,219.616s-3.87,2.67.32,5.174l32.182,4.145s-4.135-1.893,2.145-5.4l16.774-6.293L677.595,213.3Z" fill="#c4c8cd"/><g style="mix-blend-mode:multiply;isolation:isolate"><path d="M674.361,221.021c-2.717.773-5.428,4.89,5.259,6.492l11.039,1.422s-4.135-1.893,2.145-5.4l16.774-6.293-26.075-3.21C684.114,220.042,675.7,220.64,674.361,221.021Z" fill="url(#q)"/></g><path d="M533.1,227.014l84.392,2.669,2.661-5.62H564.709Z" fill="#202735"/><path d="M533.1,229.454l84.392,3.036v-2.807L533.1,227.014Z" fill="#414a5c"/><path d="M617.489,232.49l2.661-5.977v-2.44l-2.661,5.61Z"/><path d="M609.175,196.453l-39.332,2a1.071,1.071,0,0,0-.963.986l.212,25,40.513-.385.589-26.763A.86.86,0,0,0,609.175,196.453Z"/><path d="M604.727,196.34l-39.268,2.005a1.068,1.068,0,0,0-.961.984l.211,24.985,40.448.99.588-28.118A.859.859,0,0,0,604.727,196.34Z" fill="#202735"/><path d="M649.046,125.279l.736,88.751s4.182-1.893,4.182-7.974c0-3.641.039-57.489.022-75.473C653.983,127.232,653.091,124.951,649.046,125.279Z" fill="#202735"/><path d="M648.3,125.339,533.851,134.6a3.13,3.13,0,0,0-2.713,2.931l1.886,72.309,118.086.5.248-82.612C651.362,126.179,650.1,125.193,648.3,125.339Z" fill="#414a5c"/><path d="M645.17,129.56,536.139,137.9a2.982,2.982,0,0,0-2.6,2.789l1.767,69.163,112.605.479.156-78.488C648.067,130.371,646.872,129.429,645.17,129.56Z" fill="#697182"/><path d="M532.694,212.931a.415.415,0,0,0,.415.534l115.522.966a1.849,1.849,0,0,0,1.732-1.188l.747-2.9-118.086-.5Z" fill="#414a5c"/><path d="M537.643,150.98l56.743-3.157V135.447l-56.743,4.214Z" fill="#414a5c"/><path d="M537.643,157.833l56.743-3.667v-4.354l-56.743,4.724Z" opacity="0.5" fill="url(#r)" style="mix-blend-mode:screen;isolation:isolate"/><path d="M537.643,162.711l56.743-1.692v-4.354l-56.743,2.749Z" opacity="0.5" fill="url(#r)" style="mix-blend-mode:screen;isolation:isolate"/><path d="M537.643,195.02l56.743-1.164V163.481L537.643,165.7Z" opacity="0.5" fill="url(#r)" style="mix-blend-mode:screen;isolation:isolate"/><path d="M537.643,205.561l10.837-.053v-6.481l-10.837.254Z" fill="#0078ee"/><path d="M551.8,205.493l24.916-.122v-7.007l-24.916.585Z" fill="#0078ee"/><path d="M580.644,205.352l13.741-.067v-7.336l-13.741.323Z" fill="#0078ee"/><path d="M539.757,192.862l52.513-1.077V165.68l-52.513,2.056Zm.8-24.357,50.912-1.993V191l-50.912,1.044Z" fill="#d9dbdf"/><path d="M597.579,208.1h26.652V133.2l-26.652,1.875Zm.8-72.276,25.051-1.763V207.3H598.38Z" fill="#d9dbdf"/><path d="M600.494,205.181h20.822V136.326l-20.822,1.466Z" opacity="0.5" fill="url(#u)" style="mix-blend-mode:screen;isolation:isolate"/><rect width="78.45" height="0.801" transform="translate(597.606 207.565) rotate(-70.766)" fill="#d9dbdf"/><rect width="0.801" height="76.735" transform="translate(597.602 135.582) rotate(-19.688)" fill="#d9dbdf"/><rect width="58.043" height="0.8" transform="translate(539.975 192.096) rotate(-27.004)" fill="#d9dbdf"/><rect width="0.8" height="56.626" transform="translate(539.994 168.687) rotate(-65.956)" fill="#d9dbdf"/><path d="M628.928,141.688l14.346-1.223v-6.157l-14.346,1.34Z" fill="#0078ee"/><path d="M628.928,150.7l8.8-.643v-6.112l-8.8.714Z" fill="#0078ee"/><path d="M628.928,159.71l14.346-.874v-6.157l-14.346.991Z" fill="#0078ee"/><path d="M628.928,168.721l14.346-.7v-6.157l-14.346.816Z" fill="#0078ee"/><path d="M628.928,177.732l14.346-.524V171.05l-14.346.642Z" fill="#0078ee"/><path d="M628.928,186.743l14.346-.349v-6.158l-14.346.467Z" fill="#0078ee"/><path d="M628.928,195.753l14.346-.174v-6.157l-14.346.291Z" fill="url(#v)"/><path d="M628.928,204.765h14.346v-6.157l-14.346.117Z" fill="#0078ee"/><g style="mix-blend-mode:multiply;isolation:isolate"><path d="M648.3,125.339,533.851,134.6a3.13,3.13,0,0,0-2.713,2.931l.558,21.4c11.336,2.844,20.088-9.138,31.529-5.569,14.776,4.609,17.161,18.285,29.464,25.4,35.585,20.571,58.33-17.012,58.568-17.208l.1-33.817C651.362,126.179,650.1,125.193,648.3,125.339Z" fill="url(#w)"/></g><path d="M373.664,231.895l349.315,24.533v-8.639L373.664,225.141Z" fill="url(#x)"/><path d="M448.83,393.408H466.8l114.81-34.6-6.211-.7Z" fill="url(#y)" style="mix-blend-mode:multiply;isolation:isolate"/><path d="M379.129,384.747l64.573,8.665,131-39.669-39.271-4.852Z" fill="url(#z)" style="mix-blend-mode:multiply;isolation:isolate"/><path d="M346.542,386.235h17.97l163.056-36.644-6.211-.7Z" fill="url(#aa)" style="mix-blend-mode:multiply;isolation:isolate"/><path d="M575.618,339.645c-3.849-1.907-16.274-1.651-24.232-.276s-17.031,2.236-18.388,8.708c-.659,3.139,1.117,8.728,12.891,6.691s18.962,1.8,27.029-5.626S579.467,341.552,575.618,339.645Z" fill="#49a3fe"/><path d="M577.36,340.521c.326,1.1-1.2,2.758-6.275,6.69-8.526,6.6-15.064,2.811-26.613,4.3-7.352.95-10.485-.823-11.548-2.98-.4,3.19,1.743,8.174,12.965,6.233,11.773-2.038,18.962,1.8,27.029-5.626C579.6,342.994,579.7,341.824,577.36,340.521Z" fill="url(#ab)" style="mix-blend-mode:multiply;isolation:isolate"/><path d="M550.2,273.278c-8.35,7.8-22.309,70.995-22.309,70.995,12.279,8.373,29.3-1.954,29.3-1.954s19.385-59.772,20.224-67.307C577.953,270.192,558.553,265.476,550.2,273.278Z" fill="#46495f"/><g style="mix-blend-mode:multiply;isolation:isolate"><path d="M527.894,344.273c5.141,3.506,11.11,3.728,16.316,2.809a101.152,101.152,0,0,0-.734-11.431,59.994,59.994,0,0,1,.941-21.919c2.452-10.535,4.716-20.889,11.4-29.049-.571-.336-9.253-3.2-10.045-3.706C537.682,299.97,527.894,344.273,527.894,344.273Z" fill="url(#ac)"/></g><path d="M590.346,341.235c-3.849-1.907-16.275-1.653-24.233-.277s-17.03,2.236-18.387,8.709c-.66,3.139,1.117,8.728,12.89,6.69s18.962,1.8,27.029-5.625S594.194,343.142,590.346,341.235Z" fill="#49a3fe"/><path d="M592.088,342.111c.326,1.1-1.2,2.757-6.277,6.689-8.525,6.6-15.062,2.811-26.612,4.3-7.351.95-10.484-.822-11.548-2.98-.394,3.191,1.743,8.175,12.965,6.233,11.774-2.037,18.962,1.8,27.029-5.625C594.323,344.583,594.431,343.414,592.088,342.111Z" fill="url(#ab)" style="mix-blend-mode:multiply;isolation:isolate"/><path d="M564.931,274.868c-8.351,7.8-22.31,70.995-22.31,70.995,12.279,8.372,29.3-1.954,29.3-1.954S591.3,284.137,592.144,276.6C592.681,271.782,573.28,267.065,564.931,274.868Z" fill="#46495f"/><g style="mix-blend-mode:multiply;isolation:isolate"><path d="M542.621,345.863c5.142,3.505,11.11,3.728,16.316,2.808a101.09,101.09,0,0,0-.734-11.43,60.014,60.014,0,0,1,.941-21.919c2.453-10.536,4.716-20.889,11.4-29.049-.571-.337-9.253-3.2-10.046-3.707C552.409,301.559,542.621,345.863,542.621,345.863Z" fill="url(#ac)"/></g><path d="M604.384,222.317c-13.731,9.3-7.719,10.5-5.552,10.5,15.117,0,23.292-4.328,23.292-4.328S618.113,213.022,604.384,222.317Z" fill="#697182"/><path d="M501.016,276.845,454.093,289c-3.812.461-6.94,2.475-7.431,4.556l-12.747,80.858,2.637,1.1,14.121-79.439c.29-1.223,2.256-5.358,4.228-5.19L500.19,278.6c1.971.169,3.871,1.393,4.15,2.671l16.551,69.114,3.02,1.18-14.744-70.148C508.7,279.242,504.368,277.133,501.016,276.845Z" fill="#d9dbdf"/><path d="M504.256,277.123l-46.112,12.22c-4.509.76-7,2.441-7.629,4.478l-13.963,81.691,3.755-1.361L453.3,294.4c.381-1.225,2.795-2.891,4.844-3.243l46.1-12.214c1.969.169,3.864,1.391,4.138,2.668l15.408,69.937,3.693-1.764-16.3-68.2C510.715,279.417,507.608,277.412,504.256,277.123Z" fill="#c4c8cd"/><path d="M551.626,287.31l-45.693,14.45c-3.741.649-6.716,2.811-7.083,4.912L490.522,387.9l2.614.873,9.821-79.79c.217-1.235,1.923-5.457,3.882-5.387l44.071-14.5c1.959.071,3.908,1.2,4.256,2.459L575.535,359.8l2.991.944-18.578-69.283C559.358,289.322,554.959,287.432,551.626,287.31Z" fill="#d9dbdf"/><path d="M554.847,287.427,509.955,301.9c-4.412.981-6.774,2.781-7.284,4.844l-9.535,82.029,3.632-1.54,8.687-80.046c.307-1.241,2.6-3.023,4.6-3.475l44.877-14.469c1.956.071,3.9,1.2,4.243,2.457L578.4,360.743l3.553-1.942-20-67.259C561.365,289.4,558.179,287.549,554.847,287.427Z" fill="#c4c8cd"/><path d="M561.5,280.21l-56.426-7.31a2.342,2.342,0,0,0-1.544-.027l-58.887,10.883c-2.5.9-2.064,8.687,2.464,9.872l62.3,12.637a2.352,2.352,0,0,0,1.531.034l50.92-17.543C564.373,287.876,564.448,281.206,561.5,280.21Z" fill="#697082"/><path d="M559.579,278.813l-54.688-10.458a2.339,2.339,0,0,0-1.545-.028L445.229,282.5c-2.5.9-3.4,5.273,1.65,6.612l62.345,12.665a2.348,2.348,0,0,0,1.532.034l50.961-17.564C564.236,283.363,564.048,279.6,559.579,278.813Z" fill="#414a5c"/><g style="mix-blend-mode:multiply;isolation:isolate"><path d="M559.579,278.813l-54.688-10.458a2.339,2.339,0,0,0-1.545-.028l-36.052,8.79v16.138l41.93,8.518a2.348,2.348,0,0,0,1.532.034l50.961-17.564C564.236,283.363,564.048,279.6,559.579,278.813Z" fill="url(#af)"/></g><path d="M587,265.422c-25.423-15.167-49.334-15.748-60.259-16.271-28.241-1.352-67.789,5.117-62.335,24.991s39.181,3.367,86.548,11.294S596.21,270.918,587,265.422Z" fill="#46495f"/><g style="mix-blend-mode:multiply;isolation:isolate"><path d="M564.054,272.074c-.52-.053-36.495-3.67-43.679-5.8-6.214-1.841-10.92-9.486-4.42-17.258-26.472.569-56.339,7.685-51.553,25.125,5.454,19.873,39.181,3.367,86.548,11.294a170.678,170.678,0,0,0,18.931,1.669C575.284,283.293,572.751,272.95,564.054,272.074Z" fill="url(#ag)"/></g><path d="M518.185,140.364c0-5.334-4.787-12.481-13.334-13.421s-12.076,2.156-14.476,4.816c-10.143,11.239,1.6,23.593,1.026,27.867s-4.674,7.067-4.674,7.067c2.793,2.279,20.061,5.812,20.061,5.812-.058-3.134,3.647-3.191,3.647-3.191,10.714.627,8.463-13.378,8.463-13.378,2.222-.313,3.785-1.794,3.363-2.593C519.353,147.844,518.185,146.063,518.185,140.364Z" fill="#f17e59"/><g style="mix-blend-mode:multiply;isolation:isolate"><path d="M520.953,154.977c-3.769-3.4-5.442-8.664-5.328-13.627a10.534,10.534,0,0,1,1.6-5.371,15.1,15.1,0,0,0-12.376-9.036c-8.549-.94-12.076,2.156-14.476,4.816-10.143,11.239,1.6,23.593,1.026,27.867s-4.674,7.067-4.674,7.067c1.744,1.423,9.126,3.334,14.429,4.57a10.684,10.684,0,0,1,8.249-3.519,11.094,11.094,0,0,1,4.838,1.03c6.306-2.527,4.654-12.838,4.654-12.838a5.7,5.7,0,0,0,2.239-.808C521.076,155.075,521.013,155.03,520.953,154.977Z" fill="url(#ah)"/></g><path d="M486.231,152.14c-1.063,7.669,7.266,11.8,12.424,9.423,8.834-4.075,9.836-10.99,9.836-10.99S487.294,144.471,486.231,152.14Z"/><path d="M511.285,173.9c-6.611-3.041-21.252-4.705-28.66-5.1s-19.744,11.325-21.542,27.982-7.864,54.88,1.025,78.132c0,0,36.536,8.7,65.584-25.958C516.408,224.8,534.35,184.516,511.285,173.9Z" fill="#49a3fe"/><g style="mix-blend-mode:multiply;isolation:isolate"><path d="M523.818,198.878c-18.051-1.538-41.993-8.108-52.214-24.473a37.522,37.522,0,0,0-10.521,22.378c-1.8,16.657-7.864,54.88,1.025,78.132,0,0,27.75,6.6,54.11-14.64a34.616,34.616,0,0,1-8.366-18.857c-.67-6.046,1.82-11.977,8.314-13.519a11.959,11.959,0,0,1,7.457.88C523.238,218.765,524.232,208.191,523.818,198.878Z" fill="url(#ai)"/></g><path d="M511.538,149.877c-.017-.422-2.177-.594-2.179-.239a18.361,18.361,0,0,1-.742,5.739c-3.425,9.834,2.275,13.786,2.559,13.952,9.344-.052,7.915-12.022,7.739-13.278C511.731,159.469,511.646,152.573,511.538,149.877Z"/><path d="M489.439,163.344s-5.618,3.748-6.814,5.457c0,0,9.845,9.015,28.354,4.969l-2.954-3.725S490.026,167.628,489.439,163.344Z" fill="url(#aj)"/><path d="M494.508,130.141c-10.424,7.129-18.586,15.1-13.7,22.244s17.293,7.15,27.716.021,14.915-18.7,10.033-25.837S504.932,123.013,494.508,130.141Z" fill="#c4c8cd"/><g style="mix-blend-mode:multiply;isolation:isolate"><path d="M518.039,125.878a11.008,11.008,0,0,1,1.345,5.576c-.416,10.768-8.39,20.946-19.334,22.6-7.6,1.147-18.915.134-18.915-11.618-2.081,3.383-2.519,6.751-.33,9.951,4.883,7.14,17.293,7.15,27.716.021s14.915-18.7,10.033-25.837C518.387,126.326,518.215,126.1,518.039,125.878Z" fill="url(#ak)"/></g><path d="M505.565,122.884l-1.456.955c-3.714-1.079-8.706-.112-13.132,2.914-4.19,2.866-6.838,6.874-7.4,10.563l-1.876,1.232,3.324,4.814c3.255,4.037,10.719,3.912,17.034-.406,6.532-4.467,9.346-11.715,6.286-16.189Z" fill="#697182"/><path d="M487.754,122.04c-6.531,4.467-9.346,11.715-6.286,16.189s10.835,4.48,17.367.014,9.347-11.716,6.286-16.19S494.286,117.573,487.754,122.04Z" fill="#c4c8cd"/><g style="mix-blend-mode:multiply;isolation:isolate"><path d="M501.719,126.354c-5.984.74-12.923,1.685-19.481,1.36-2.274,3.672-2.724,7.659-.77,10.515,3.059,4.475,10.835,4.48,17.367.014,4.957-3.39,7.765-8.379,7.5-12.545C504.8,125.939,503.264,126.164,501.719,126.354Z" fill="url(#al)"/></g><path d="M609.837,213.855c-3.982-.561-7.442,3.856-12.2,6.493s-16.883-1.3-16.883-1.3l1.771,10.765s6.653-.719,9.113.836,4.825,3.155,7.014-.089,8.457-3.928,8.457-3.928,4.2,1.9,5.922,1.073c1.532-.73-.782-2.34-1.888-3.02-.337-.183-.538-.318-.538-.318s.223.123.538.318c1.041.562,3.406,1.587,5.421.621,2.672-1.28-1.738-3.726-1.738-3.726s7.442,2.287,7.058-.6C621.713,219.7,613.817,214.417,609.837,213.855Z" fill="#f17e59"/><g style="mix-blend-mode:multiply;isolation:isolate"><path d="M607.587,216.16c1.114-2.529-6.352,6.665-9.144,7.649-2.99,1.055-6.208-.12-9.368.076-2.049.127-3.533-4.079-6.247-3.843l-.3,9.775s6.653-.719,9.113.836,4.825,3.155,7.014-.089,8.457-3.928,8.457-3.928,4.2,1.9,5.922,1.073c1.532-.73-.782-2.34-1.888-3.02a6.906,6.906,0,0,0,4.751.861c-.1-.03-3.324-1.353-4.752-1.967C606.407,221.546,606.665,218.251,607.587,216.16Z" fill="url(#am)"/></g><path d="M514.715,174.947c-7.056-2.667-15.326,4.877-14.239,15.428,1.181,11.473,18.278,30.42,29.6,38.374s23.693,7.108,12.75-15.142S521.553,177.531,514.715,174.947Z" fill="#49a3fe"/><path d="M544.37,213.651c-19.126-1.211-8.6,19.382-3.476,19.656,25.864,1.382,49.657.348,49.657.348,5.989-6.9.969-14.189.969-14.189C585.256,218.74,563.5,214.863,544.37,213.651Z" fill="#49a3fe"/><path d="M501.122,299.176a68.5,68.5,0,0,1-2.167-7.84c-.944-4.223-3.253-15.791-4.92-24.518-.864-4.559-1.559-8.346-1.791-9.879-.251-1.631-.444-2.913-.578-3.656v-.017l-.258-1.4-2.889.238.258,1.4c.125.69.32,1.972.571,3.585.532,3.493,1.118,7,1.747,10.435,2.352,13,5.278,25.06,7.977,32.054l2.444.622c-.12-.281-.238-.588-.358-.928A.342.342,0,0,1,501.122,299.176Z" fill="#d9dbdf"/><path d="M491.666,253.283v.009l-.243.015c.142.779.346,2.234.618,4.089.455,3.185.946,6.395,1.464,9.553,2.158,13.067,4.848,25.346,7.617,32.227a.567.567,0,0,0,.046.114c.128.315.256.623.392.921l2.855.671c-7.4-18.863-9.952-46.982-10.105-47.8Z" fill="#c4c8cd"/><path d="M452.843,288.613a63.612,63.612,0,0,1-1.981-7.16c-.117-.539-.263-1.2-.429-1.976-1.722-8.054-5.664-27.724-6.309-32-.277-1.873-.5-3.354-.662-4.181v-.026l-.27-1.407-2.89.23.26,1.407c.151.774.376,2.245.654,4.1a287.048,287.048,0,0,0,6.692,32.476,89.9,89.9,0,0,0,3.17,9.654l2.449.625c-.2-.441-.4-.97-.628-1.6C452.88,288.7,452.861,288.658,452.843,288.613Z" fill="#d9dbdf"/><path d="M443.227,243.313c.14.764.355,2.191.631,3.995,1.78,11.793,3.95,23.556,6.188,32.259a78.14,78.14,0,0,0,2.8,9.046c.018.045.037.089.056.141.244.591.477,1.138.719,1.626l3.225.762c-6.96-12.221-10.568-47.25-10.727-48.068Z" fill="#c4c8cd"/><path d="M492.909,210.041c-1.339-4.192-6.724-7.671-11.85-7.767l-46.773-.754c-6.519-.122-9.91,4.361-10.267,6.737-.1.664,5.195.4,5.382,1.165l11.928,41.12s58.881,4.7,61.481,5.086c2.633.392,5.2-1.786,3.061-6.681C505.347,247.748,492.909,210.041,492.909,210.041Z" fill="#414a5c"/><path d="M476.529,206.112l-47.319-1.273c-3.711-.107-6.018,2.613-5.195,6.071l11.053,38.7s22.763,7.647,67.742,6.015l-14.707-41.7C486.8,209.756,481.544,206.256,476.529,206.112Z" fill="#697082"/><g style="mix-blend-mode:multiply;isolation:isolate"><path d="M476.529,206.112l-47.319-1.273c-3.711-.107-6.018,2.613-5.195,6.071l3.731,13.066a17.514,17.514,0,0,0,3.738,2.115c3.849,1.5,8.534.341,12.394-.467,10.245-2.146,18.248-2.577,28.158,1.171,7.959,3.012,17.176,6.974,22.189,14.228,2.3,3.333,3.274,7.222,5.1,10.795a33.4,33.4,0,0,0,2.344,3.845c.383-.013.754-.021,1.141-.035l-14.707-41.7C486.8,209.756,481.544,206.256,476.529,206.112Z" fill="url(#an)"/></g><path d="M478.367,204.458l-47.319-1.272a5.105,5.105,0,0,0-4.684,2.237,5.963,5.963,0,0,1,2.846-.584l47.319,1.273c5.015.144,10.274,3.644,11.574,7.813l14.149,40.122c.8-.023,1.584-.044,2.394-.073l-14.7-41.7C488.64,208.1,483.381,204.6,478.367,204.458Z" opacity="0.5" fill="url(#r)" style="mix-blend-mode:screen;isolation:isolate"/></g></svg>